<svg xmlns="http://www.w3.org/2000/svg" xmlns:xlink="http://www.w3.org/1999/xlink" preserveAspectRatio="xMidYMid" width="74" height="73" viewBox="0 0 74 73">
  <defs>
    <style>
      .cls-1 {
        fill: #f4f4f4;
      }

      .cls-1, .cls-3 {
        fill-rule: evenodd;
      }

      .cls-2 {
        fill: #ececec;
        stroke: #d6d6d6;
        stroke-width: 2px;
      }

      .cls-3 {
        fill: #4196f6;
      }
    </style>
  </defs>
  <g>
    <path d="M-0.000,42.000 L72.000,42.000 L72.000,60.000 C72.000,66.627 66.627,72.000 60.000,72.000 L12.000,72.000 C5.373,72.000 -0.000,66.627 -0.000,60.000 L-0.000,42.000 Z" class="cls-1"/>
    <rect x="1" y="1" width="72" height="64" rx="12" ry="12" class="cls-2"/>
    <path d="M48.596,40.200 C47.264,41.563 45.524,42.245 43.375,42.245 C41.211,42.245 39.457,41.563 38.114,40.200 C36.770,38.837 36.098,37.104 36.098,35.002 L36.098,31.932 C36.098,29.839 36.768,28.108 38.108,26.741 C39.447,25.374 41.196,24.690 43.352,24.690 C45.492,24.690 47.235,25.374 48.578,26.741 C49.922,28.108 50.594,29.839 50.594,31.932 L50.594,35.002 C50.594,37.104 49.928,38.837 48.596,40.200 ZM46.645,31.909 C46.645,30.690 46.358,29.690 45.784,28.908 C45.209,28.128 44.399,27.737 43.352,27.737 C42.282,27.737 41.463,28.126 40.897,28.903 C40.330,29.681 40.047,30.682 40.047,31.909 L40.047,35.002 C40.047,36.237 40.334,37.245 40.908,38.026 C41.483,38.807 42.305,39.198 43.375,39.198 C44.414,39.198 45.219,38.807 45.789,38.026 C46.360,37.245 46.645,36.237 46.645,35.002 L46.645,31.909 ZM31.528,41.483 C30.449,41.991 29.063,42.245 27.368,42.245 C25.250,42.245 23.531,41.596 22.211,40.299 C20.891,39.003 20.231,37.319 20.231,35.249 L20.231,31.686 C20.231,29.631 20.873,27.952 22.158,26.647 C23.444,25.342 25.098,24.690 27.121,24.690 C29.301,24.690 30.947,25.176 32.061,26.149 C33.174,27.122 33.711,28.452 33.672,30.140 L33.649,30.210 L29.934,30.210 C29.934,29.374 29.711,28.752 29.266,28.346 C28.821,27.940 28.149,27.737 27.251,27.737 C26.328,27.737 25.586,28.100 25.024,28.827 C24.461,29.553 24.180,30.499 24.180,31.663 L24.180,35.249 C24.180,36.437 24.459,37.391 25.018,38.114 C25.576,38.837 26.360,39.198 27.368,39.198 C28.094,39.198 28.666,39.139 29.084,39.022 C29.502,38.904 29.832,38.749 30.075,38.553 L30.075,35.507 L27.051,35.507 L27.051,32.882 L34.036,32.882 L34.036,39.643 C33.442,40.363 32.606,40.976 31.528,41.483 Z" class="cls-3"/>
  </g>
</svg>
