<svg xmlns="http://www.w3.org/2000/svg" xmlns:xlink="http://www.w3.org/1999/xlink" preserveAspectRatio="xMidYMid" width="72" height="72" viewBox="0 0 72 72">
  <defs>
    <style>
      .cls-1 {
        fill: #ededed;
      }

      .cls-2 {
        fill: #dfdfdf;
      }

      .cls-2, .cls-3 {
        fill-rule: evenodd;
      }

      .cls-3 {
        fill: #4196f6;
      }
    </style>
  </defs>
  <g>
    <rect width="72" height="72" rx="12" ry="12" class="cls-1"/>
    <path d="M37.999,57.988 C26.970,57.988 17.997,49.015 17.997,37.986 C17.997,26.957 26.970,17.985 37.999,17.985 C39.648,17.985 40.985,19.321 40.985,20.970 C40.985,22.619 39.648,23.955 37.999,23.955 C30.263,23.955 23.968,30.250 23.968,37.986 C23.968,45.723 30.263,52.017 37.999,52.017 C45.735,52.017 52.030,45.723 52.030,37.986 C52.030,36.337 53.367,35.001 55.016,35.001 C56.664,35.001 58.001,36.337 58.001,37.986 C58.001,49.015 49.029,57.988 37.999,57.988 Z" class="cls-2"/>
    <path d="M33.999,53.988 C22.970,53.988 13.997,45.015 13.997,33.986 C13.997,22.957 22.970,13.985 33.999,13.985 C35.648,13.985 36.985,15.321 36.985,16.970 C36.985,18.618 35.648,19.955 33.999,19.955 C26.263,19.955 19.968,26.249 19.968,33.986 C19.968,41.723 26.263,48.017 33.999,48.017 C41.735,48.017 48.030,41.723 48.030,33.986 C48.030,32.337 49.367,31.001 51.016,31.001 C52.664,31.001 54.001,32.337 54.001,33.986 C54.001,45.015 45.029,53.988 33.999,53.988 Z" class="cls-3"/>
  </g>
</svg>
