<svg xmlns="http://www.w3.org/2000/svg" xmlns:xlink="http://www.w3.org/1999/xlink" preserveAspectRatio="xMidYMid" width="72" height="72" viewBox="0 0 72 72">
  <defs>
    <style>
      .cls-1 {
        fill: #e8f4fe;
      }

      .cls-2 {
        fill: purple;
      }

      .cls-2, .cls-3, .cls-4, .cls-5, .cls-6 {
        fill-rule: evenodd;
      }

      .cls-3 {
        fill: #fec006;
      }

      .cls-4 {
        fill: #d40000;
      }

      .cls-5 {
        fill: #2095f2;
      }

      .cls-6 {
        fill: #2380c9;
      }
    </style>
  </defs>
  <g>
    <rect width="72" height="72" rx="12" ry="12" class="cls-1"/>
    <path d="M26.125,22.906 C22.863,22.906 20.219,20.262 20.219,17.000 C20.219,13.738 22.863,11.094 26.125,11.094 C29.387,11.094 32.031,13.738 32.031,17.000 C32.031,20.262 29.387,22.906 26.125,22.906 ZM26.132,13.311 C24.095,13.311 22.444,14.962 22.444,16.998 C22.444,19.035 24.095,20.686 26.132,20.686 C28.168,20.686 29.819,19.035 29.819,16.998 C29.819,14.962 28.168,13.311 26.132,13.311 Z" class="cls-2"/>
    <path d="M46.500,22.000 C44.015,22.000 42.000,19.985 42.000,17.500 C42.000,15.015 44.015,13.000 46.500,13.000 C48.985,13.000 51.000,15.015 51.000,17.500 C51.000,19.985 48.985,22.000 46.500,22.000 ZM46.505,14.689 C44.953,14.689 43.696,15.947 43.696,17.498 C43.696,19.050 44.953,20.308 46.505,20.308 C48.057,20.308 49.315,19.050 49.315,17.498 C49.315,15.947 48.057,14.689 46.505,14.689 Z" class="cls-3"/>
    <path d="M38.500,31.000 C36.015,31.000 34.000,28.985 34.000,26.500 C34.000,24.015 36.015,22.000 38.500,22.000 C40.985,22.000 43.000,24.015 43.000,26.500 C43.000,28.985 40.985,31.000 38.500,31.000 ZM38.505,23.689 C36.953,23.689 35.696,24.947 35.696,26.498 C35.696,28.050 36.953,29.308 38.505,29.308 C40.057,29.308 41.315,28.050 41.315,26.498 C41.315,24.947 40.057,23.689 38.505,23.689 Z" class="cls-4"/>
    <path d="M52.909,31.782 C52.713,31.307 52.250,30.998 51.736,30.998 L21.270,30.998 C20.757,30.998 20.294,31.307 20.097,31.782 C19.901,32.256 20.009,32.802 20.372,33.165 L31.169,44.960 C31.425,45.215 31.695,45.868 31.695,46.229 L31.695,53.652 C31.695,53.989 31.829,54.311 32.067,54.549 L39.145,59.626 C39.387,59.869 39.712,59.998 40.043,59.998 C40.206,59.998 40.371,59.967 40.528,59.901 C41.002,59.705 41.311,59.242 41.311,58.729 L41.311,46.229 C41.311,45.868 41.582,45.215 41.837,44.960 L52.634,33.165 C52.997,32.802 53.106,32.256 52.909,31.782 Z" class="cls-5"/>
    <path d="M20.000,29.000 L53.000,29.000 C53.552,29.000 54.000,29.448 54.000,30.000 C54.000,30.552 53.552,31.000 53.000,31.000 L20.000,31.000 C19.448,31.000 19.000,30.552 19.000,30.000 C19.000,29.448 19.448,29.000 20.000,29.000 Z" class="cls-6"/>
  </g>
</svg>
