<svg xmlns="http://www.w3.org/2000/svg" xmlns:xlink="http://www.w3.org/1999/xlink" preserveAspectRatio="xMidYMid" width="72" height="72" viewBox="0 0 72 72">
  <defs>
    <style>
      .cls-1 {
        fill: #4196f6;
      }

      .cls-2 {
        fill: #3682d9;
      }

      .cls-2, .cls-3 {
        fill-rule: evenodd;
      }

      .cls-3 {
        fill: #fff;
      }
    </style>
  </defs>
  <g>
    <rect width="72" height="72" rx="12" ry="12" class="cls-1"/>
    <path d="M48.600,34.598 C49.960,34.598 51.213,34.805 52.360,35.218 C53.506,35.632 54.493,36.225 55.320,36.998 C56.146,37.772 56.786,38.712 57.240,39.818 C57.693,40.925 57.920,42.185 57.920,43.598 C57.920,44.772 57.746,45.932 57.400,47.078 C57.053,48.225 56.500,49.265 55.740,50.198 C54.980,51.132 54.013,51.885 52.840,52.458 C51.666,53.031 50.266,53.318 48.640,53.318 C48.160,53.318 47.426,53.271 46.440,53.178 C45.453,53.084 44.460,52.905 43.460,52.638 C42.460,52.372 41.580,51.985 40.820,51.478 C40.060,50.972 39.680,50.305 39.680,49.478 C39.680,48.812 39.933,48.232 40.440,47.738 C40.946,47.245 41.586,46.998 42.360,46.998 C42.760,46.998 43.133,47.078 43.480,47.238 C43.826,47.398 44.206,47.565 44.620,47.738 C45.033,47.912 45.486,48.078 45.980,48.238 C46.473,48.398 47.053,48.478 47.720,48.478 C48.600,48.478 49.340,48.345 49.940,48.078 C50.540,47.812 51.020,47.458 51.380,47.018 C51.740,46.578 51.993,46.072 52.140,45.498 C52.286,44.925 52.360,44.345 52.360,43.758 C52.360,42.265 51.993,41.172 51.260,40.478 C50.526,39.785 49.613,39.438 48.520,39.438 C48.066,39.438 47.673,39.478 47.340,39.558 C47.006,39.638 46.666,39.772 46.320,39.958 C46.000,40.198 45.680,40.412 45.360,40.598 C45.066,40.758 44.753,40.898 44.420,41.018 C44.086,41.138 43.760,41.198 43.440,41.198 C42.640,41.198 41.966,40.945 41.420,40.438 C40.873,39.932 40.613,39.278 40.640,38.478 L41.040,27.438 C41.066,26.585 41.393,25.925 42.020,25.458 C42.646,24.992 43.333,24.758 44.080,24.758 L53.720,24.758 C54.066,24.758 54.426,24.805 54.800,24.898 C55.173,24.992 55.500,25.138 55.780,25.338 C56.060,25.538 56.293,25.798 56.480,26.118 C56.666,26.438 56.760,26.825 56.760,27.278 C56.760,27.732 56.666,28.112 56.480,28.418 C56.293,28.725 56.060,28.978 55.780,29.178 C55.500,29.378 55.173,29.518 54.800,29.598 C54.426,29.678 54.066,29.718 53.720,29.718 L46.240,29.718 L46.000,34.918 C46.400,34.785 46.820,34.698 47.260,34.658 C47.700,34.618 48.146,34.598 48.600,34.598 ZM35.760,48.718 C36.293,49.198 36.560,49.785 36.560,50.478 C36.560,51.172 36.293,51.765 35.760,52.258 C35.226,52.752 34.573,52.998 33.800,52.998 L20.640,52.998 C19.786,52.998 19.100,52.745 18.580,52.238 C18.060,51.732 17.800,51.105 17.800,50.358 C17.800,50.065 17.820,49.752 17.860,49.418 C17.900,49.085 17.986,48.772 18.120,48.478 C18.520,47.598 18.993,46.772 19.540,45.998 C20.086,45.225 20.680,44.492 21.320,43.798 C21.960,43.105 22.633,42.432 23.340,41.778 C24.046,41.125 24.760,40.478 25.480,39.838 C26.040,39.332 26.633,38.812 27.260,38.278 C27.886,37.745 28.466,37.178 29.000,36.578 C29.533,35.978 29.980,35.352 30.340,34.698 C30.700,34.045 30.880,33.345 30.880,32.598 C30.880,31.585 30.566,30.725 29.940,30.018 C29.313,29.312 28.373,28.958 27.120,28.958 C26.426,28.958 25.813,29.012 25.280,29.118 C24.746,29.225 24.240,29.385 23.760,29.598 C23.306,29.785 22.866,30.012 22.440,30.278 C22.013,30.545 21.506,30.678 20.920,30.678 C20.226,30.678 19.600,30.458 19.040,30.018 C18.480,29.578 18.200,28.985 18.200,28.238 C18.200,27.518 18.513,26.892 19.140,26.358 C19.766,25.825 20.540,25.392 21.460,25.058 C22.380,24.725 23.360,24.478 24.400,24.318 C25.440,24.158 26.360,24.078 27.160,24.078 C28.626,24.078 29.933,24.292 31.080,24.718 C32.226,25.145 33.193,25.725 33.980,26.458 C34.766,27.192 35.366,28.052 35.780,29.038 C36.193,30.025 36.400,31.078 36.400,32.198 C36.400,33.905 36.106,35.352 35.520,36.538 C34.933,37.725 34.173,38.798 33.240,39.758 C32.573,40.452 31.860,41.132 31.100,41.798 C30.340,42.465 29.593,43.138 28.860,43.818 C28.126,44.498 27.413,45.178 26.720,45.858 C26.026,46.538 25.413,47.252 24.880,47.998 L33.800,47.998 C34.573,47.998 35.226,48.238 35.760,48.718 Z" class="cls-2"/>
    <path d="M46.600,32.598 C47.960,32.598 49.213,32.805 50.360,33.218 C51.506,33.632 52.493,34.225 53.320,34.998 C54.146,35.772 54.786,36.712 55.240,37.818 C55.693,38.925 55.920,40.185 55.920,41.598 C55.920,42.772 55.746,43.932 55.400,45.078 C55.053,46.225 54.500,47.265 53.740,48.198 C52.980,49.132 52.013,49.885 50.840,50.458 C49.666,51.031 48.266,51.318 46.640,51.318 C46.160,51.318 45.426,51.272 44.440,51.178 C43.453,51.085 42.460,50.905 41.460,50.638 C40.460,50.372 39.580,49.985 38.820,49.478 C38.060,48.972 37.680,48.305 37.680,47.478 C37.680,46.812 37.933,46.232 38.440,45.738 C38.946,45.245 39.586,44.998 40.360,44.998 C40.760,44.998 41.133,45.078 41.480,45.238 C41.826,45.398 42.206,45.565 42.620,45.738 C43.033,45.912 43.486,46.078 43.980,46.238 C44.473,46.398 45.053,46.478 45.720,46.478 C46.600,46.478 47.340,46.345 47.940,46.078 C48.540,45.812 49.020,45.458 49.380,45.018 C49.740,44.578 49.993,44.072 50.140,43.498 C50.286,42.925 50.360,42.345 50.360,41.758 C50.360,40.265 49.993,39.172 49.260,38.478 C48.526,37.785 47.613,37.438 46.520,37.438 C46.066,37.438 45.673,37.478 45.340,37.558 C45.006,37.638 44.666,37.772 44.320,37.958 C44.000,38.198 43.680,38.412 43.360,38.598 C43.066,38.758 42.753,38.898 42.420,39.018 C42.086,39.138 41.760,39.198 41.440,39.198 C40.640,39.198 39.966,38.945 39.420,38.438 C38.873,37.932 38.613,37.278 38.640,36.478 L39.040,25.438 C39.066,24.585 39.393,23.925 40.020,23.458 C40.646,22.992 41.333,22.758 42.080,22.758 L51.720,22.758 C52.066,22.758 52.426,22.805 52.800,22.898 C53.173,22.992 53.500,23.138 53.780,23.338 C54.060,23.538 54.293,23.798 54.480,24.118 C54.666,24.438 54.760,24.825 54.760,25.278 C54.760,25.732 54.666,26.112 54.480,26.418 C54.293,26.725 54.060,26.978 53.780,27.178 C53.500,27.378 53.173,27.518 52.800,27.598 C52.426,27.678 52.066,27.718 51.720,27.718 L44.240,27.718 L44.000,32.918 C44.400,32.785 44.820,32.698 45.260,32.658 C45.700,32.618 46.146,32.598 46.600,32.598 ZM33.760,46.718 C34.293,47.198 34.560,47.785 34.560,48.478 C34.560,49.172 34.293,49.765 33.760,50.258 C33.226,50.752 32.573,50.998 31.800,50.998 L18.640,50.998 C17.786,50.998 17.100,50.745 16.580,50.238 C16.060,49.732 15.800,49.105 15.800,48.358 C15.800,48.065 15.820,47.752 15.860,47.418 C15.900,47.085 15.986,46.772 16.120,46.478 C16.520,45.598 16.993,44.772 17.540,43.998 C18.086,43.225 18.680,42.492 19.320,41.798 C19.960,41.105 20.633,40.432 21.340,39.778 C22.046,39.125 22.760,38.478 23.480,37.838 C24.040,37.332 24.633,36.812 25.260,36.278 C25.886,35.745 26.466,35.178 27.000,34.578 C27.533,33.978 27.980,33.352 28.340,32.698 C28.700,32.045 28.880,31.345 28.880,30.598 C28.880,29.585 28.566,28.725 27.940,28.018 C27.313,27.312 26.373,26.958 25.120,26.958 C24.426,26.958 23.813,27.012 23.280,27.118 C22.746,27.225 22.240,27.385 21.760,27.598 C21.306,27.785 20.866,28.012 20.440,28.278 C20.013,28.545 19.506,28.678 18.920,28.678 C18.226,28.678 17.600,28.458 17.040,28.018 C16.480,27.578 16.200,26.985 16.200,26.238 C16.200,25.518 16.513,24.892 17.140,24.358 C17.766,23.825 18.540,23.392 19.460,23.058 C20.380,22.725 21.360,22.478 22.400,22.318 C23.440,22.158 24.360,22.078 25.160,22.078 C26.626,22.078 27.933,22.292 29.080,22.718 C30.226,23.145 31.193,23.725 31.980,24.458 C32.766,25.192 33.366,26.052 33.780,27.038 C34.193,28.025 34.400,29.078 34.400,30.198 C34.400,31.905 34.106,33.352 33.520,34.538 C32.933,35.725 32.173,36.798 31.240,37.758 C30.573,38.452 29.860,39.132 29.100,39.798 C28.340,40.465 27.593,41.138 26.860,41.818 C26.126,42.498 25.413,43.178 24.720,43.858 C24.026,44.538 23.413,45.252 22.880,45.998 L31.800,45.998 C32.573,45.998 33.226,46.238 33.760,46.718 Z" class="cls-3"/>
  </g>
</svg>
