<svg xmlns="http://www.w3.org/2000/svg" xmlns:xlink="http://www.w3.org/1999/xlink" preserveAspectRatio="xMidYMid" width="72" height="72" viewBox="0 0 72 72">
  <defs>
    <style>
      .cls-1 {
        fill: #dfdfdf;
      }

      .cls-1, .cls-2, .cls-3, .cls-4, .cls-5 {
        fill-rule: evenodd;
      }

      .cls-2 {
        fill: #2f7bd1;
      }

      .cls-3 {
        fill: #4196f6;
      }

      .cls-4 {
        fill: #d7d7d7;
      }

      .cls-5 {
        fill: #fff;
      }
    </style>
  </defs>
  <g>
    <path d="M2.000,36.998 L70.000,36.998 L72.000,59.998 C72.000,66.626 66.627,71.998 60.000,71.998 L12.000,71.998 C5.372,71.998 -0.000,66.626 -0.000,59.998 L2.000,36.998 Z" class="cls-1"/>
    <path d="M2.000,36.998 L70.000,36.998 L72.000,54.998 C72.000,61.626 66.627,66.998 60.000,66.998 L12.000,66.998 C5.372,66.998 -0.000,61.626 -0.000,54.998 L2.000,36.998 Z" class="cls-2"/>
    <path d="M14.000,-0.000 L58.000,-0.000 C64.627,-0.000 70.000,5.373 70.000,12.000 L70.000,35.000 L2.000,35.000 L2.000,12.000 C2.000,5.373 7.373,-0.000 14.000,-0.000 Z" class="cls-3"/>
    <path d="M13.623,45.683 C14.233,44.767 14.901,43.921 15.627,43.140 C16.343,42.371 17.092,41.652 17.873,40.980 C18.644,40.317 19.436,39.682 20.252,39.072 C21.057,38.469 21.860,37.879 22.659,37.301 C22.793,37.203 22.947,37.097 23.085,36.998 L30.701,36.998 C30.621,37.072 30.557,37.157 30.473,37.231 C29.770,37.855 29.012,38.475 28.197,39.090 C27.372,39.713 26.551,40.349 25.734,40.999 C24.905,41.658 24.089,42.324 23.283,43.000 C22.466,43.684 21.721,44.411 21.049,45.182 L30.719,45.182 C31.557,45.182 32.259,45.431 32.829,45.936 C33.403,46.444 33.687,47.071 33.678,47.823 C33.668,48.584 33.359,49.243 32.749,49.797 C32.131,50.357 31.381,50.639 30.501,50.639 L15.528,50.639 C14.557,50.639 13.829,50.349 13.348,49.774 C12.871,49.206 12.717,48.510 12.878,47.692 C12.941,47.373 13.029,47.036 13.144,46.678 C13.257,46.324 13.417,45.992 13.623,45.683 ZM43.645,37.409 C43.340,37.626 43.032,37.819 42.721,37.988 C42.433,38.133 42.124,38.262 41.793,38.371 C41.460,38.481 41.131,38.536 40.805,38.536 C39.990,38.536 39.294,38.304 38.723,37.843 C38.420,37.598 38.205,37.315 38.067,36.998 L45.230,36.998 C45.033,37.016 44.804,37.016 44.640,37.052 C44.311,37.123 43.980,37.243 43.645,37.409 ZM39.953,44.151 C40.383,44.151 40.788,44.233 41.170,44.397 C41.552,44.561 41.973,44.733 42.431,44.912 C42.891,45.092 43.395,45.264 43.944,45.431 C44.494,45.599 45.132,45.683 45.859,45.683 C46.817,45.683 47.607,45.543 48.226,45.264 C48.843,44.988 49.315,44.623 49.643,44.171 C49.969,43.724 50.169,43.214 50.245,42.641 C50.320,42.076 50.316,41.509 50.236,40.942 C50.034,39.525 49.516,38.512 48.685,37.879 C48.052,37.397 47.339,37.107 46.544,36.998 L54.399,36.998 C54.470,37.097 54.558,37.180 54.626,37.284 C55.277,38.286 55.737,39.451 56.001,40.788 C56.226,41.926 56.267,43.074 56.122,44.233 C55.973,45.418 55.573,46.515 54.915,47.518 C54.246,48.540 53.299,49.377 52.074,50.024 C50.834,50.677 49.281,51.007 47.425,51.007 C46.877,51.007 46.034,50.953 44.900,50.845 C43.767,50.738 42.623,50.532 41.469,50.228 C40.322,49.925 39.311,49.490 38.438,48.923 C37.574,48.363 37.137,47.634 37.121,46.743 C37.109,46.034 37.373,45.425 37.911,44.912 C38.443,44.404 39.122,44.151 39.953,44.151 Z" class="cls-4"/>
    <path d="M52.780,25.678 C52.500,25.878 52.173,26.018 51.800,26.098 C51.426,26.178 51.066,26.218 50.720,26.218 L43.240,26.218 L43.000,31.418 C43.400,31.285 43.820,31.198 44.260,31.158 C44.700,31.118 45.146,31.098 45.600,31.098 C46.960,31.098 48.213,31.305 49.360,31.718 C50.506,32.132 51.493,32.725 52.320,33.498 C52.794,33.942 53.199,34.447 53.550,35.000 L37.641,35.000 C37.641,34.992 37.640,34.986 37.640,34.978 L38.040,23.938 C38.066,23.085 38.393,22.425 39.020,21.958 C39.646,21.492 40.333,21.258 41.080,21.258 L50.720,21.258 C51.066,21.258 51.426,21.305 51.800,21.398 C52.173,21.492 52.500,21.638 52.780,21.838 C53.060,22.038 53.293,22.298 53.480,22.618 C53.666,22.938 53.760,23.325 53.760,23.778 C53.760,24.232 53.666,24.612 53.480,24.918 C53.293,25.225 53.060,25.478 52.780,25.678 ZM31.288,35.000 L24.007,35.000 C24.095,34.925 24.171,34.854 24.260,34.778 C24.886,34.245 25.466,33.678 26.000,33.078 C26.533,32.478 26.980,31.852 27.340,31.198 C27.700,30.545 27.880,29.845 27.880,29.098 C27.880,28.085 27.566,27.225 26.940,26.518 C26.313,25.812 25.373,25.458 24.120,25.458 C23.426,25.458 22.813,25.512 22.280,25.618 C21.746,25.725 21.240,25.885 20.760,26.098 C20.306,26.285 19.866,26.512 19.440,26.778 C19.013,27.045 18.506,27.178 17.920,27.178 C17.226,27.178 16.600,26.958 16.040,26.518 C15.480,26.078 15.200,25.485 15.200,24.738 C15.200,24.018 15.513,23.392 16.140,22.858 C16.766,22.325 17.540,21.892 18.460,21.558 C19.380,21.225 20.360,20.978 21.400,20.818 C22.440,20.658 23.360,20.578 24.160,20.578 C25.626,20.578 26.933,20.792 28.080,21.218 C29.226,21.645 30.193,22.225 30.980,22.958 C31.766,23.692 32.366,24.552 32.780,25.538 C33.193,26.525 33.400,27.578 33.400,28.698 C33.400,30.405 33.106,31.852 32.520,33.038 C32.175,33.735 31.752,34.381 31.288,35.000 Z" class="cls-5"/>
  </g>
</svg>
