<svg xmlns="http://www.w3.org/2000/svg" xmlns:xlink="http://www.w3.org/1999/xlink" preserveAspectRatio="xMidYMid" width="72" height="72" viewBox="0 0 72 72">
  <defs>
    <style>
      .cls-1 {
        fill: #425eac;
      }

      .cls-2 {
        fill: #334d96;
      }

      .cls-2, .cls-3 {
        fill-rule: evenodd;
      }

      .cls-3 {
        fill: #fff;
      }
    </style>
  </defs>
  <g>
    <rect width="72" height="72" rx="12" ry="12" class="cls-1"/>
    <path d="M40.289,50.869 L34.742,50.869 L34.742,37.523 L31.970,37.523 L31.970,32.922 L34.742,32.922 L34.742,30.161 C34.742,26.409 36.307,24.177 40.753,24.177 L44.454,24.177 L44.454,28.778 L42.142,28.778 C40.411,28.778 40.296,29.420 40.296,30.620 L40.289,32.922 L44.481,32.922 L43.991,37.523 L40.289,37.523 L40.289,50.869 Z" class="cls-2"/>
    <path d="M38.310,48.890 L32.763,48.890 L32.763,35.544 L29.991,35.544 L29.991,30.943 L32.763,30.943 L32.763,28.182 C32.763,24.430 34.328,22.198 38.774,22.198 L42.476,22.198 L42.476,26.799 L40.163,26.799 C38.432,26.799 38.317,27.442 38.317,28.641 L38.310,30.943 L42.502,30.943 L42.012,35.544 L38.310,35.544 L38.310,48.890 Z" class="cls-3"/>
  </g>
</svg>
