<svg xmlns="http://www.w3.org/2000/svg" xmlns:xlink="http://www.w3.org/1999/xlink" preserveAspectRatio="xMidYMid" width="74" height="73" viewBox="0 0 74 73">
  <defs>
    <style>
      .cls-1 {
        fill: #ededed;
      }

      .cls-1, .cls-3, .cls-4 {
        fill-rule: evenodd;
      }

      .cls-2 {
        fill: #425eac;
        stroke: #1c3884;
        stroke-width: 2px;
      }

      .cls-3 {
        fill: #334d96;
      }

      .cls-4 {
        fill: #fff;
      }
    </style>
  </defs>
  <g>
    <path d="M-0.000,42.000 L72.000,42.000 L72.000,60.000 C72.000,66.627 66.627,72.000 60.000,72.000 L12.000,72.000 C5.373,72.000 -0.000,66.627 -0.000,60.000 L-0.000,42.000 Z" class="cls-1"/>
    <rect x="1" y="1" width="72" height="64" rx="12" ry="12" class="cls-2"/>
    <path d="M40.289,49.870 L34.742,49.870 L34.742,36.524 L31.970,36.524 L31.970,31.923 L34.742,31.923 L34.742,29.162 C34.742,25.410 36.307,23.178 40.753,23.178 L44.454,23.178 L44.454,27.779 L42.142,27.779 C40.411,27.779 40.296,28.422 40.296,29.621 L40.289,31.923 L44.481,31.923 L43.991,36.524 L40.289,36.524 L40.289,49.870 Z" class="cls-3"/>
    <path d="M37.310,46.891 L31.763,46.891 L31.763,33.545 L28.991,33.545 L28.991,28.944 L31.763,28.944 L31.763,26.183 C31.763,22.431 33.328,20.199 37.774,20.199 L41.476,20.199 L41.476,24.800 L39.163,24.800 C37.432,24.800 37.317,25.443 37.317,26.642 L37.310,28.944 L41.502,28.944 L41.012,33.545 L37.310,33.545 L37.310,46.891 Z" class="cls-4"/>
  </g>
</svg>
