<svg xmlns="http://www.w3.org/2000/svg" xmlns:xlink="http://www.w3.org/1999/xlink" preserveAspectRatio="xMidYMid" width="72" height="72" viewBox="0 0 72 72">
  <defs>
    <style>
      .cls-1 {
        fill: #fdf6e7;
      }

      .cls-2 {
        fill: #684c46;
      }

      .cls-2, .cls-5 {
        fill-rule: evenodd;
      }

      .cls-3 {
        fill: #db841b;
      }

      .cls-4 {
        fill: #ffae00;
      }

      .cls-5 {
        fill: #fff;
      }
    </style>
  </defs>
  <g>
    <rect width="72" height="72" rx="12" ry="12" class="cls-1"/>
    <path d="M33.000,53.000 L33.000,51.000 L59.000,51.000 L59.000,53.000 L33.000,53.000 ZM50.000,58.000 L33.000,58.000 L33.000,56.000 L50.000,56.000 L50.000,58.000 Z" class="cls-2"/>
    <circle cx="21.5" cy="54.5" r="6.5" class="cls-3"/>
    <circle cx="20.5" cy="53.5" r="6.5" class="cls-4"/>
    <path d="M24.389,52.084 L20.146,56.327 C19.756,56.717 19.122,56.717 18.732,56.327 L16.611,54.205 C16.220,53.815 16.220,53.181 16.611,52.791 C17.001,52.401 17.634,52.401 18.025,52.791 L19.439,54.206 L22.975,50.670 C23.365,50.279 23.998,50.279 24.389,50.670 C24.779,51.060 24.779,51.693 24.389,52.084 Z" class="cls-5"/>
    <path d="M33.000,35.000 L33.000,33.000 L59.000,33.000 L59.000,35.000 L33.000,35.000 ZM50.000,40.000 L33.000,40.000 L33.000,38.000 L50.000,38.000 L50.000,40.000 Z" class="cls-2"/>
    <circle cx="21.5" cy="36.5" r="6.5" class="cls-3"/>
    <circle cx="20.5" cy="35.5" r="6.5" class="cls-4"/>
    <path d="M24.389,34.084 L20.146,38.327 C19.756,38.717 19.122,38.717 18.732,38.327 L16.611,36.205 C16.220,35.815 16.220,35.182 16.611,34.791 C17.001,34.401 17.634,34.401 18.025,34.791 L19.439,36.205 L22.975,32.670 C23.365,32.280 23.998,32.280 24.389,32.670 C24.779,33.060 24.779,33.694 24.389,34.084 Z" class="cls-5"/>
    <path d="M33.000,17.000 L33.000,15.000 L59.000,15.000 L59.000,17.000 L33.000,17.000 ZM50.000,22.000 L33.000,22.000 L33.000,20.000 L50.000,20.000 L50.000,22.000 Z" class="cls-2"/>
    <circle cx="21.5" cy="18.5" r="6.5" class="cls-3"/>
    <circle cx="20.5" cy="17.5" r="6.5" class="cls-4"/>
    <path d="M24.389,16.084 L20.146,20.327 C19.756,20.717 19.122,20.717 18.732,20.327 L16.611,18.206 C16.220,17.815 16.220,17.182 16.611,16.791 C17.001,16.400 17.634,16.400 18.025,16.791 L19.439,18.205 L22.975,14.670 C23.365,14.279 23.998,14.279 24.389,14.670 C24.779,15.060 24.779,15.694 24.389,16.084 Z" class="cls-5"/>
  </g>
</svg>
