<svg xmlns="http://www.w3.org/2000/svg" xmlns:xlink="http://www.w3.org/1999/xlink" preserveAspectRatio="xMidYMid" width="72" height="72" viewBox="0 0 72 72">
  <defs>
    <style>
      .cls-1 {
        fill: #ffefda;
      }

      .cls-2 {
        fill: #f3dec1;
      }

      .cls-2, .cls-3, .cls-4 {
        fill-rule: evenodd;
      }

      .cls-3 {
        fill: #ff9000;
      }

      .cls-4 {
        fill: #fff;
      }
    </style>
  </defs>
  <g>
    <rect width="72" height="72" rx="12" ry="12" class="cls-1"/>
    <path d="M56.018,44.750 C54.741,43.981 54.083,42.883 53.696,41.895 C55.747,39.808 56.985,37.136 56.985,34.208 C56.985,27.472 50.408,21.982 42.283,21.982 C34.157,21.982 27.580,27.436 27.580,34.208 C27.580,40.980 34.157,46.434 42.283,46.434 C45.223,46.434 47.970,45.702 50.292,44.457 C52.381,45.629 54.625,45.592 55.902,45.409 C56.250,45.409 56.327,44.969 56.018,44.750 ZM42.244,48.886 C42.824,48.886 43.405,48.850 43.946,48.813 C42.399,52.950 37.756,55.987 32.223,55.987 C29.785,55.987 27.503,55.402 25.568,54.340 C23.827,55.329 21.970,55.292 20.887,55.146 C20.577,55.109 20.500,54.743 20.770,54.560 C21.815,53.901 22.395,52.986 22.705,52.180 C21.003,50.423 19.997,48.227 19.997,45.812 C19.997,42.334 22.125,39.223 25.375,37.392 C27.077,43.945 34.003,48.886 42.244,48.886 Z" class="cls-2"/>
    <path d="M53.018,41.750 C51.741,40.981 51.083,39.883 50.696,38.895 C52.747,36.808 53.985,34.136 53.985,31.208 C53.985,24.472 47.408,18.982 39.283,18.982 C31.157,18.982 24.580,24.436 24.580,31.208 C24.580,37.980 31.157,43.434 39.283,43.434 C42.223,43.434 44.970,42.702 47.292,41.457 C49.381,42.628 51.625,42.592 52.902,42.409 C53.250,42.409 53.327,41.970 53.018,41.750 Z" class="cls-3"/>
    <path d="M39.244,45.886 C39.824,45.886 40.405,45.850 40.946,45.813 C39.399,49.949 34.756,52.988 29.223,52.988 C26.785,52.988 24.503,52.402 22.568,51.340 C20.827,52.329 18.970,52.292 17.886,52.146 C17.577,52.109 17.500,51.743 17.770,51.560 C18.815,50.901 19.395,49.986 19.705,49.181 C18.003,47.424 16.997,45.227 16.997,42.812 C16.997,39.334 19.125,36.222 22.375,34.392 C24.077,40.945 31.003,45.886 39.244,45.886 Z" class="cls-4"/>
  </g>
</svg>
