<svg xmlns="http://www.w3.org/2000/svg" xmlns:xlink="http://www.w3.org/1999/xlink" preserveAspectRatio="xMidYMid" width="72" height="72" viewBox="0 0 72 72">
  <defs>
    <style>
      .cls-1 {
        fill: #c4e0ff;
      }

      .cls-2 {
        fill: #fff;
      }

      .cls-2, .cls-3 {
        fill-rule: evenodd;
      }

      .cls-3 {
        fill: #4076b3;
      }
    </style>
  </defs>
  <g>
    <rect width="72" height="72" rx="12" ry="12" class="cls-1"/>
    <path d="M40.196,21.999 C36.114,21.999 32.447,24.434 30.805,28.140 C25.955,26.849 22.208,30.104 21.858,34.006 C18.336,34.209 16.075,36.399 15.999,39.482 C15.940,41.873 17.672,45.000 21.815,45.000 L49.605,45.000 L49.634,45.000 C54.647,45.000 56.999,42.057 56.999,38.439 C56.999,35.109 54.448,32.353 50.480,31.936 C50.249,26.419 45.726,22.000 40.198,22.000 " class="cls-2"/>
    <path d="M40.154,50.001 L40.154,42.134 L43.000,42.134 L37.500,34.998 L31.999,42.134 L34.846,42.134 L34.846,50.001 L40.154,50.001 Z" class="cls-3"/>
  </g>
</svg>
