<svg xmlns="http://www.w3.org/2000/svg" xmlns:xlink="http://www.w3.org/1999/xlink" preserveAspectRatio="xMidYMid" width="72" height="72" viewBox="0 0 72 72">
  <defs>
    <style>
      .cls-1 {
        fill: #fff;
      }

      .cls-2, .cls-3 {
        fill: #fdeedc;
      }

      .cls-2, .cls-6 {
        fill-rule: evenodd;
      }

      .cls-4 {
        fill: #ecd9c1;
      }

      .cls-5 {
        fill: #db841b;
      }

      .cls-6 {
        fill: #2d1d04;
      }

      .cls-7 {
        fill: #fae7a4;
      }
    </style>
  </defs>
  <g>
    <rect width="72" height="72" rx="12" ry="12" class="cls-1"/>
    <path d="M54.000,8.000 L18.000,8.000 C11.373,8.000 6.000,13.373 6.000,20.000 L6.000,56.000 C6.000,57.760 6.388,59.426 7.069,60.931 C2.904,59.049 0.000,54.868 0.000,50.000 L0.000,14.000 C0.000,7.373 5.373,2.000 12.000,2.000 L48.000,2.000 C52.868,2.000 57.049,4.904 58.931,9.069 C57.426,8.388 55.760,8.000 54.000,8.000 Z" class="cls-2"/>
    <rect x="8" y="10" width="60" height="60" rx="12" ry="12" class="cls-3"/>
    <g>
      <rect x="22.25" y="29.25" width="36" height="26" class="cls-4"/>
      <rect x="19.25" y="26.25" width="36" height="26" class="cls-1"/>
      <rect x="20.75" y="27.75" width="32" height="22" class="cls-5"/>
      <path d="M30.000,43.999 C38.500,43.999 37.595,40.999 44.000,40.999 C50.076,40.999 51.189,42.727 53.000,43.999 L53.000,49.999 L21.000,49.999 L21.000,37.999 C22.186,38.994 26.053,43.999 30.000,43.999 Z" class="cls-6"/>
      <circle cx="30.75" cy="34.75" r="3" class="cls-7"/>
    </g>
  </g>
</svg>
