<svg xmlns="http://www.w3.org/2000/svg" xmlns:xlink="http://www.w3.org/1999/xlink" preserveAspectRatio="xMidYMid" width="72" height="72" viewBox="0 0 72 72">
  <defs>
    <style>
      .cls-1 {
        fill: #ededed;
      }

      .cls-2 {
        fill: #88d146;
      }

      .cls-2, .cls-3, .cls-4 {
        fill-rule: evenodd;
      }

      .cls-3 {
        fill: #72b338;
      }

      .cls-4 {
        fill: #e03832;
      }
    </style>
  </defs>
  <g>
    <rect width="72" height="72" rx="12" ry="12" class="cls-1"/>
    <path d="M50.150,51.548 C50.700,50.499 51.000,49.299 51.000,47.999 C51.000,43.899 47.950,40.549 43.999,40.049 L43.999,17.999 L56.000,22.998 L56.000,53.999 L50.150,51.548 ZM15.999,17.999 L27.999,22.998 L27.999,53.999 L15.999,48.999 L15.999,17.999 Z" class="cls-2"/>
    <path d="M35.000,47.999 C35.000,43.899 38.050,40.549 41.999,40.049 L41.999,17.999 L30.000,22.998 L30.000,53.999 L35.849,51.548 C35.299,50.499 35.000,49.299 35.000,47.999 Z" class="cls-3"/>
    <path d="M42.999,41.999 C39.699,41.999 37.000,44.699 37.000,47.999 C37.000,49.249 37.399,50.398 38.050,51.399 L42.999,57.999 L47.950,51.399 C48.600,50.449 49.000,49.249 49.000,47.999 C49.000,44.699 46.299,41.999 42.999,41.999 ZM42.999,50.999 C41.349,50.999 40.000,49.649 40.000,47.999 C40.000,46.349 41.349,44.999 42.999,44.999 C44.649,44.999 45.999,46.349 45.999,47.999 C45.999,49.649 44.649,50.999 42.999,50.999 Z" class="cls-4"/>
  </g>
</svg>
