<svg xmlns="http://www.w3.org/2000/svg" xmlns:xlink="http://www.w3.org/1999/xlink" preserveAspectRatio="xMidYMid" width="72" height="72" viewBox="0 0 72 72">
  <defs>
    <style>
      .cls-1 {
        fill: #e03832;
      }

      .cls-2 {
        fill: #cb342f;
      }

      .cls-2, .cls-3 {
        fill-rule: evenodd;
      }

      .cls-3 {
        fill: #fff;
      }
    </style>
  </defs>
  <g>
    <rect width="72" height="72" rx="12" ry="12" class="cls-1"/>
    <path d="M51.225,40.161 C51.216,41.137 51.211,42.107 51.207,43.078 C50.284,43.078 49.365,43.078 48.442,43.078 C48.433,42.107 48.433,41.137 48.423,40.165 C47.500,40.156 46.572,40.146 45.649,40.136 C45.649,39.171 45.649,38.205 45.649,37.234 C46.572,37.224 47.495,37.219 48.423,37.214 C48.428,36.238 48.437,35.268 48.446,34.297 C49.365,34.297 50.284,34.297 51.207,34.297 C51.211,35.268 51.216,36.243 51.225,37.214 C52.148,37.224 53.076,37.224 53.999,37.234 C53.999,38.200 53.999,39.171 53.999,40.136 C53.076,40.146 52.153,40.151 51.225,40.161 ZM29.603,48.225 C25.803,46.703 23.113,42.483 23.433,38.180 C23.517,32.916 28.118,28.306 33.124,28.481 C35.522,28.364 37.777,29.462 39.614,31.004 C38.830,31.940 38.018,32.843 37.151,33.687 C34.942,32.082 31.802,31.623 29.594,33.477 C26.435,35.775 26.291,41.199 29.329,43.673 C32.284,46.493 37.870,45.093 38.686,40.776 C36.835,40.746 34.980,40.776 33.129,40.712 C33.124,39.551 33.119,38.390 33.124,37.229 C36.218,37.219 39.312,37.214 42.411,37.238 C42.597,39.971 42.253,42.878 40.658,45.136 C38.241,48.713 33.388,49.756 29.603,48.225 Z" class="cls-2"/>
    <path d="M48.828,37.764 C48.819,38.740 48.814,39.710 48.809,40.681 C47.886,40.681 46.968,40.681 46.045,40.681 C46.035,39.710 46.035,38.740 46.026,37.769 C45.103,37.758 44.175,37.749 43.252,37.739 C43.252,36.773 43.252,35.807 43.252,34.836 C44.175,34.827 45.098,34.822 46.026,34.817 C46.031,33.841 46.040,32.870 46.049,31.900 C46.968,31.900 47.886,31.900 48.809,31.900 C48.814,32.870 48.819,33.845 48.828,34.817 C49.751,34.827 50.679,34.827 51.602,34.836 C51.602,35.803 51.602,36.773 51.602,37.739 C50.679,37.749 49.756,37.754 48.828,37.764 ZM27.206,45.827 C23.406,44.306 20.716,40.086 21.036,35.783 C21.119,30.519 25.721,25.909 30.727,26.085 C33.125,25.968 35.380,27.065 37.217,28.606 C36.433,29.544 35.621,30.446 34.753,31.290 C32.545,29.685 29.404,29.226 27.196,31.080 C24.037,33.377 23.893,38.802 26.932,41.276 C29.887,44.096 35.472,42.695 36.289,38.378 C34.438,38.349 32.582,38.378 30.731,38.315 C30.727,37.154 30.722,35.993 30.727,34.832 C33.821,34.822 36.915,34.817 40.014,34.842 C40.199,37.573 39.856,40.481 38.260,42.740 C35.843,46.315 30.991,47.360 27.206,45.827 Z" class="cls-3"/>
  </g>
</svg>
