<svg xmlns="http://www.w3.org/2000/svg" xmlns:xlink="http://www.w3.org/1999/xlink" preserveAspectRatio="xMidYMid" width="74" height="73" viewBox="0 0 74 73">
  <defs>
    <style>
      .cls-1 {
        fill: #ededed;
      }

      .cls-1, .cls-3, .cls-4 {
        fill-rule: evenodd;
      }

      .cls-2 {
        fill: #e03832;
        stroke: #bd2924;
        stroke-width: 2px;
      }

      .cls-3 {
        fill: #cb342f;
      }

      .cls-4 {
        fill: #fff;
      }
    </style>
  </defs>
  <g>
    <path d="M-0.000,42.000 L72.000,42.000 L72.000,60.000 C72.000,66.627 66.627,72.000 60.000,72.000 L12.000,72.000 C5.373,72.000 -0.000,66.627 -0.000,60.000 L-0.000,42.000 Z" class="cls-1"/>
    <rect x="1" y="1" width="72" height="64" rx="12" ry="12" class="cls-2"/>
    <path d="M52.225,37.162 C52.216,38.137 52.211,39.108 52.207,40.079 C51.284,40.079 50.365,40.079 49.442,40.079 C49.433,39.108 49.433,38.137 49.423,37.166 C48.500,37.157 47.572,37.147 46.649,37.137 C46.649,36.172 46.649,35.205 46.649,34.235 C47.572,34.225 48.495,34.219 49.423,34.215 C49.428,33.239 49.437,32.268 49.446,31.298 C50.365,31.298 51.284,31.298 52.207,31.298 C52.211,32.268 52.216,33.244 52.225,34.215 C53.148,34.225 54.076,34.225 54.999,34.235 C54.999,35.201 54.999,36.172 54.999,37.137 C54.076,37.147 53.153,37.152 52.225,37.162 ZM30.603,45.226 C26.803,43.704 24.113,39.483 24.433,35.181 C24.517,29.917 29.118,25.307 34.124,25.482 C36.522,25.365 38.777,26.463 40.614,28.005 C39.830,28.941 39.018,29.844 38.151,30.688 C35.942,29.083 32.802,28.624 30.594,30.478 C27.435,32.776 27.291,38.200 30.329,40.674 C33.284,43.494 38.870,42.094 39.686,37.777 C37.835,37.747 35.980,37.777 34.129,37.713 C34.124,36.552 34.119,35.390 34.124,34.230 C37.218,34.219 40.312,34.215 43.411,34.239 C43.597,36.972 43.253,39.879 41.658,42.137 C39.241,45.714 34.388,46.757 30.603,45.226 Z" class="cls-3"/>
    <path d="M48.828,33.765 C48.819,34.740 48.814,35.711 48.809,36.682 C47.886,36.682 46.968,36.682 46.045,36.682 C46.035,35.711 46.035,34.740 46.026,33.770 C45.103,33.759 44.175,33.750 43.252,33.740 C43.252,32.774 43.252,31.808 43.252,30.837 C44.175,30.828 45.098,30.823 46.026,30.817 C46.031,29.842 46.040,28.871 46.049,27.901 C46.968,27.901 47.886,27.901 48.809,27.901 C48.814,28.871 48.819,29.846 48.828,30.817 C49.751,30.828 50.679,30.828 51.602,30.837 C51.602,31.803 51.602,32.774 51.602,33.740 C50.679,33.750 49.756,33.755 48.828,33.765 ZM27.206,41.828 C23.406,40.306 20.716,36.086 21.036,31.784 C21.119,26.520 25.721,21.910 30.727,22.085 C33.125,21.968 35.380,23.066 37.217,24.607 C36.433,25.544 35.621,26.447 34.753,27.291 C32.545,25.686 29.404,25.227 27.196,27.081 C24.037,29.378 23.893,34.803 26.932,37.277 C29.887,40.097 35.472,38.696 36.289,34.379 C34.438,34.350 32.582,34.379 30.731,34.315 C30.727,33.155 30.722,31.993 30.727,30.833 C33.821,30.823 36.915,30.817 40.014,30.842 C40.199,33.574 39.856,36.482 38.260,38.740 C35.843,42.316 30.991,43.361 27.206,41.828 Z" class="cls-4"/>
  </g>
</svg>
