<svg xmlns="http://www.w3.org/2000/svg" xmlns:xlink="http://www.w3.org/1999/xlink" preserveAspectRatio="xMidYMid" width="72" height="72" viewBox="0 0 72 72">
  <defs>
    <style>
      .cls-1 {
        fill: #72b338;
      }

      .cls-2 {
        fill: #6aa436;
      }

      .cls-2, .cls-3 {
        fill-rule: evenodd;
      }

      .cls-3 {
        fill: #fff;
      }
    </style>
  </defs>
  <g>
    <rect width="72" height="72" rx="12" ry="12" class="cls-1"/>
    <path d="M56.000,42.326 C47.218,35.971 38.437,48.681 29.656,42.326 L29.656,26.439 C38.437,32.793 47.218,20.084 56.000,26.439 L56.000,42.326 ZM29.750,23.927 C29.750,24.994 28.910,25.859 27.875,25.859 C26.839,25.859 26.000,24.994 26.000,23.927 C26.000,22.861 26.839,21.995 27.875,21.995 C28.910,21.995 29.750,22.861 29.750,23.927 ZM28.625,55.225 L28.625,27.018 C28.625,26.592 28.289,26.246 27.875,26.246 C27.460,26.246 27.125,26.592 27.125,27.018 L27.125,55.225 C27.125,55.651 27.460,55.997 27.875,55.997 C28.289,55.997 28.625,55.651 28.625,55.225 L28.625,55.225 Z" class="cls-2"/>
    <path d="M52.000,38.326 C43.218,31.971 34.437,44.681 25.656,38.326 L25.656,22.439 C34.437,28.793 43.218,16.084 52.000,22.439 L52.000,38.326 ZM25.750,19.927 C25.750,20.994 24.910,21.859 23.875,21.859 C22.839,21.859 22.000,20.994 22.000,19.927 C22.000,18.860 22.839,17.995 23.875,17.995 C24.910,17.995 25.750,18.860 25.750,19.927 ZM24.625,51.225 L24.625,23.018 C24.625,22.592 24.289,22.246 23.875,22.246 C23.460,22.246 23.125,22.592 23.125,23.018 L23.125,51.225 C23.125,51.651 23.460,51.998 23.875,51.998 C24.289,51.998 24.625,51.651 24.625,51.225 L24.625,51.225 Z" class="cls-3"/>
  </g>
</svg>
