<svg xmlns="http://www.w3.org/2000/svg" xmlns:xlink="http://www.w3.org/1999/xlink" preserveAspectRatio="xMidYMid" width="72" height="72" viewBox="0 0 72 72">
  <defs>
    <style>
      .cls-1 {
        fill: #fdeedc;
      }

      .cls-2, .cls-4 {
        fill: #ecd9c1;
      }

      .cls-2, .cls-3, .cls-7 {
        fill-rule: evenodd;
      }

      .cls-3 {
        fill: #684c46;
      }

      .cls-5 {
        fill: #fff;
      }

      .cls-6 {
        fill: #db841b;
      }

      .cls-7 {
        fill: #2d1d04;
      }

      .cls-8 {
        fill: #fae7a4;
      }
    </style>
  </defs>
  <g>
    <rect width="72" height="72" rx="12" ry="12" class="cls-1"/>
    <path d="M20.000,55.000 L20.000,53.000 L56.000,53.000 L56.000,55.000 L20.000,55.000 ZM52.000,61.000 L23.000,61.000 L23.000,59.000 L52.000,59.000 L52.000,61.000 Z" class="cls-2"/>
    <path d="M17.000,52.000 L17.000,50.000 L53.000,50.000 L53.000,52.000 L17.000,52.000 ZM49.000,58.000 L20.000,58.000 L20.000,56.000 L49.000,56.000 L49.000,58.000 Z" class="cls-3"/>
    <g>
      <rect x="18" y="17" width="40" height="30" class="cls-4"/>
      <rect x="15" y="14" width="40" height="30" class="cls-5"/>
      <rect x="17" y="16" width="36" height="26" class="cls-6"/>
      <path d="M26.000,34.999 C34.500,34.999 35.595,31.999 42.000,31.999 C48.076,31.999 51.689,34.226 53.000,34.999 L53.000,41.999 L17.000,41.999 L17.000,28.999 C18.186,29.993 22.053,34.999 26.000,34.999 Z" class="cls-7"/>
      <circle cx="27.25" cy="24.25" r="3.5" class="cls-8"/>
    </g>
  </g>
</svg>
