<svg xmlns="http://www.w3.org/2000/svg" xmlns:xlink="http://www.w3.org/1999/xlink" preserveAspectRatio="xMidYMid" width="72" height="72" viewBox="0 0 72 72">
  <defs>
    <style>
      .cls-1 {
        fill: #fdf6e7;
      }

      .cls-2 {
        fill: #fff;
      }

      .cls-2, .cls-3, .cls-4 {
        fill-rule: evenodd;
      }

      .cls-3 {
        fill: #dfdfdf;
      }

      .cls-4 {
        fill: #ffae00;
      }
    </style>
  </defs>
  <g>
    <rect width="72" height="72" rx="12" ry="12" class="cls-1"/>
    <path d="M66.000,51.000 L66.000,52.000 L57.000,52.000 L57.000,61.000 L56.000,61.000 L56.000,52.000 L47.000,52.000 L47.000,61.000 L46.000,61.000 L46.000,52.000 L37.000,52.000 L37.000,61.000 L36.000,61.000 L36.000,52.000 L27.000,52.000 L27.000,61.000 L26.000,61.000 L26.000,52.000 L17.000,52.000 L17.000,61.000 L16.000,61.000 L16.000,52.000 L6.000,52.000 L6.000,51.000 L16.000,51.000 L16.000,42.000 L6.000,42.000 L6.000,41.000 L16.000,41.000 L16.000,32.000 L6.000,32.000 L6.000,31.000 L16.000,31.000 L16.000,22.000 L6.000,22.000 L6.000,21.000 L16.000,21.000 L16.000,11.000 L17.000,11.000 L17.000,21.000 L26.000,21.000 L26.000,11.000 L27.000,11.000 L27.000,21.000 L36.000,21.000 L36.000,11.000 L37.000,11.000 L37.000,21.000 L46.000,21.000 L46.000,11.000 L47.000,11.000 L47.000,21.000 L56.000,21.000 L56.000,11.000 L57.000,11.000 L57.000,21.000 L66.000,21.000 L66.000,22.000 L57.000,22.000 L57.000,31.000 L66.000,31.000 L66.000,32.000 L57.000,32.000 L57.000,41.000 L66.000,41.000 L66.000,42.000 L57.000,42.000 L57.000,51.000 L66.000,51.000 ZM26.000,22.000 L17.000,22.000 L17.000,31.000 L26.000,31.000 L26.000,22.000 ZM26.000,32.000 L17.000,32.000 L17.000,41.000 L26.000,41.000 L26.000,32.000 ZM17.000,42.000 L17.000,51.000 L26.000,51.000 L26.000,42.000 L17.000,42.000 ZM36.000,22.000 L27.000,22.000 L27.000,31.000 L36.000,31.000 L36.000,22.000 ZM36.000,32.000 L27.000,32.000 L27.000,41.000 L36.000,41.000 L36.000,32.000 ZM27.000,42.000 L27.000,51.000 L36.000,51.000 L36.000,42.000 L27.000,42.000 ZM46.000,22.000 L37.000,22.000 L37.000,31.000 L46.000,31.000 L46.000,22.000 ZM46.000,32.000 L37.000,32.000 L37.000,41.000 L46.000,41.000 L46.000,32.000 ZM37.000,42.000 L37.000,51.000 L46.000,51.000 L46.000,42.000 L37.000,42.000 ZM56.000,22.000 L47.000,22.000 L47.000,31.000 L56.000,31.000 L56.000,22.000 ZM56.000,32.000 L47.000,32.000 L47.000,41.000 L56.000,41.000 L56.000,32.000 ZM56.000,42.000 L47.000,42.000 L47.000,51.000 L56.000,51.000 L56.000,42.000 Z" class="cls-2"/>
    <path d="M60.999,28.999 C60.999,31.199 59.200,32.998 56.999,32.998 C56.639,32.998 56.300,32.958 55.979,32.858 L48.860,39.959 C48.960,40.278 48.999,40.638 48.999,40.998 C48.999,43.198 47.199,44.999 44.999,44.999 C42.799,44.999 41.000,43.198 41.000,40.998 C41.000,40.638 41.040,40.278 41.139,39.959 L36.039,34.858 C35.719,34.958 35.359,34.999 34.999,34.999 C34.640,34.999 34.280,34.958 33.960,34.858 L24.859,43.979 C24.959,44.298 25.000,44.638 25.000,44.999 C25.000,47.199 23.199,48.999 20.999,48.999 C18.800,48.999 16.999,47.199 16.999,44.999 C16.999,42.798 18.800,40.998 20.999,40.998 C21.359,40.998 21.700,41.039 22.019,41.138 L31.140,32.039 C31.039,31.719 30.999,31.359 30.999,30.999 C30.999,28.798 32.799,26.999 34.999,26.999 C37.199,26.999 39.000,28.798 39.000,30.999 C39.000,31.359 38.959,31.719 38.859,32.039 L43.959,37.139 C44.279,37.039 44.639,36.999 44.999,36.999 C45.359,36.999 45.720,37.039 46.039,37.139 L53.139,30.019 C53.039,29.698 53.000,29.358 53.000,28.999 C53.000,26.799 54.800,24.998 56.999,24.998 C59.200,24.998 60.999,26.799 60.999,28.999 Z" class="cls-3"/>
    <path d="M58.000,25.999 C58.000,28.199 56.200,29.999 54.000,29.999 C53.640,29.999 53.300,29.959 52.980,29.859 L45.860,36.958 C45.960,37.279 46.000,37.639 46.000,37.999 C46.000,40.199 44.200,41.998 42.000,41.998 C39.800,41.998 38.000,40.199 38.000,37.999 C38.000,37.639 38.040,37.279 38.140,36.958 L33.040,31.858 C32.720,31.959 32.360,31.999 32.000,31.999 C31.640,31.999 31.280,31.959 30.960,31.858 L21.860,40.978 C21.960,41.299 22.000,41.639 22.000,41.998 C22.000,44.199 20.200,45.999 18.000,45.999 C15.800,45.999 14.000,44.199 14.000,41.998 C14.000,39.799 15.800,37.999 18.000,37.999 C18.360,37.999 18.700,38.039 19.020,38.139 L28.140,29.038 C28.040,28.719 28.000,28.358 28.000,27.999 C28.000,25.799 29.800,23.999 32.000,23.999 C34.200,23.999 36.000,25.799 36.000,27.999 C36.000,28.358 35.960,28.719 35.860,29.038 L40.960,34.139 C41.280,34.038 41.640,33.998 42.000,33.998 C42.360,33.998 42.720,34.038 43.040,34.139 L50.140,27.019 C50.040,26.699 50.000,26.359 50.000,25.999 C50.000,23.799 51.800,21.999 54.000,21.999 C56.200,21.999 58.000,23.799 58.000,25.999 Z" class="cls-4"/>
  </g>
</svg>
