<svg xmlns="http://www.w3.org/2000/svg" xmlns:xlink="http://www.w3.org/1999/xlink" preserveAspectRatio="xMidYMid" width="72" height="72" viewBox="0 0 72 72">
  <defs>
    <style>
      .cls-1 {
        fill: #f7e9d7;
      }

      .cls-2 {
        fill: #e7dac8;
      }

      .cls-10, .cls-11, .cls-2, .cls-3, .cls-4, .cls-5, .cls-6, .cls-7, .cls-8, .cls-9 {
        fill-rule: evenodd;
      }

      .cls-3 {
        fill: #684c46;
      }

      .cls-4 {
        fill: #0788bf;
      }

      .cls-5 {
        fill: #46b8e3;
      }

      .cls-6 {
        fill: #ffd14f;
      }

      .cls-7 {
        fill: #122030;
      }

      .cls-8 {
        fill: #f5dcba;
      }

      .cls-9 {
        fill: #fff;
      }

      .cls-10 {
        fill: #eabe8d;
      }

      .cls-11 {
        fill: #9c7356;
      }
    </style>
  </defs>
  <g>
    <rect width="72" height="72" rx="12" ry="12" class="cls-1"/>
    <g>
      <path d="M58.756,48.141 C58.722,48.253 55.491,60.680 42.795,60.676 C31.820,60.673 26.619,51.128 26.619,51.128 C25.819,51.173 25.047,51.046 24.335,50.784 C21.115,49.601 19.570,45.915 20.681,42.823 L18.912,41.469 C12.057,36.245 31.476,12.334 38.343,17.745 C38.377,17.772 39.982,19.064 39.982,19.064 C42.448,17.566 44.889,16.756 46.874,16.756 C48.284,16.756 49.463,17.164 50.257,18.024 C52.039,19.956 51.398,23.642 48.965,27.376 C49.488,27.873 49.922,28.549 50.232,29.220 C51.005,29.817 51.507,30.725 51.756,31.980 C52.033,33.374 52.091,35.360 52.265,36.214 C52.922,36.510 52.642,36.373 53.342,36.723 C54.071,37.088 54.960,37.532 55.942,38.478 C57.687,38.915 58.353,40.772 57.332,42.039 C57.305,42.073 57.181,42.219 57.054,42.365 C57.084,42.445 57.419,42.988 57.661,44.092 C58.384,44.264 58.960,44.709 59.262,45.355 C59.785,46.619 58.756,48.141 58.756,48.141 Z" class="cls-2"/>
      <path d="M56.756,45.141 C56.722,45.253 53.491,57.680 40.795,57.676 C29.820,57.673 24.619,48.128 24.619,48.128 C23.819,48.173 23.047,48.046 22.335,47.784 C19.115,46.601 17.570,42.915 18.681,39.822 L16.912,38.469 C10.057,33.244 29.476,9.334 36.343,14.745 C36.377,14.772 37.982,16.064 37.982,16.064 C40.448,14.566 42.889,13.756 44.874,13.756 C46.284,13.756 47.463,14.164 48.257,15.024 C50.039,16.955 49.398,20.643 46.965,24.376 C47.488,24.873 47.922,25.549 48.232,26.220 C49.005,26.817 49.507,27.725 49.756,28.979 C50.033,30.374 50.091,32.361 50.265,33.214 C50.921,33.511 50.642,33.373 51.342,33.723 C52.071,34.088 52.960,34.532 53.942,35.477 C55.687,35.915 56.353,37.772 55.332,39.039 C55.305,39.073 55.181,39.219 55.054,39.364 C55.084,39.445 55.419,39.988 55.661,41.093 C56.384,41.263 56.960,41.709 57.262,42.355 C57.785,43.620 56.756,45.141 56.756,45.141 Z" class="cls-3"/>
      <path d="M19.537,38.095 C19.520,38.090 17.863,36.877 17.627,36.478 C16.233,34.130 18.658,29.309 20.384,26.569 C24.650,19.796 31.751,14.451 34.976,15.214 L38.288,16.920 C37.002,17.674 35.758,18.601 35.013,19.217 L34.308,19.807 C34.308,19.807 32.250,21.189 31.227,22.061 C27.124,25.553 23.084,30.960 21.586,36.179 C21.586,36.179 20.355,36.789 19.537,38.095 Z" class="cls-4"/>
      <path d="M34.936,15.216 L34.936,15.216 C31.719,14.451 24.637,19.806 20.382,26.590 C20.381,26.593 20.380,26.595 20.379,26.597 L20.396,26.598 L23.786,29.273 C27.509,23.352 32.187,20.299 32.319,20.209 L31.782,16.586 L32.788,16.103 L34.810,16.759 L34.655,16.082 L34.936,15.216 L34.936,15.216 Z" class="cls-5"/>
      <path d="M38.288,16.926 L35.030,19.213 L34.802,19.391 L31.913,17.035 L31.847,16.590 L32.851,16.110 C32.903,16.126 34.788,16.735 34.867,16.761 L34.901,15.512 L34.993,15.229 L35.875,14.891 C35.877,14.892 38.285,16.923 38.288,16.926 Z" class="cls-6"/>
      <path d="M47.439,20.260 C47.044,21.335 46.563,22.192 46.010,23.098 C43.670,20.757 36.365,23.458 33.654,26.005 C32.223,26.803 31.030,28.255 29.790,29.881 C28.260,31.885 27.289,33.972 26.476,36.023 C24.858,35.336 23.475,35.531 22.459,35.834 C22.392,35.854 22.325,35.876 22.257,35.900 C22.236,35.908 22.214,35.917 22.193,35.925 C22.147,35.943 22.100,35.960 22.054,35.980 C22.029,35.990 22.003,36.002 21.978,36.013 C21.935,36.032 21.893,36.051 21.850,36.072 C21.823,36.084 21.797,36.098 21.770,36.112 C21.728,36.133 21.687,36.154 21.645,36.176 C21.634,36.183 21.622,36.188 21.610,36.194 L21.526,36.242 C23.020,31.020 27.051,25.610 31.144,22.115 C32.165,21.243 34.218,19.860 34.218,19.860 L31.898,17.814 L31.729,16.632 L34.921,19.270 C35.147,19.083 35.418,18.867 35.722,18.637 L34.391,17.522 L36.403,18.137 C36.530,18.046 36.661,17.954 36.794,17.862 L36.441,16.632 L37.414,17.449 C37.668,17.285 37.927,17.124 38.188,16.970 C40.049,15.853 42.474,14.716 44.635,14.716 C48.434,14.716 48.416,17.675 47.439,20.260 ZM34.603,16.129 L34.884,15.264 L35.362,17.001 L34.771,16.809 L34.603,16.129 Z" class="cls-7"/>
      <path d="M27.299,40.318 L27.299,40.318 L27.299,40.318 C27.576,39.614 27.716,39.036 27.716,39.036 C28.033,40.005 28.195,41.025 28.131,42.055 L28.131,42.055 L28.131,42.055 C28.394,41.705 28.676,41.046 28.676,41.046 C29.165,43.925 27.065,46.559 24.298,46.559 C21.841,46.559 19.850,44.462 19.850,41.876 C19.850,39.290 21.841,37.194 24.298,37.194 C24.935,37.194 25.540,37.335 26.088,37.589 C26.088,37.589 27.033,38.065 27.299,40.318 ZM51.505,50.466 C54.953,47.756 55.556,44.494 55.613,44.381 C56.462,43.364 56.231,42.361 55.110,42.361 C54.753,42.361 54.484,42.455 54.484,42.455 C54.484,42.455 54.488,40.970 53.801,39.814 C53.272,40.410 51.802,41.589 49.873,42.505 C48.065,43.363 45.651,44.115 42.660,44.214 L42.660,44.214 C41.823,44.251 41.305,44.115 41.013,45.091 C40.920,45.436 40.960,45.948 41.030,46.096 C41.266,46.905 41.883,47.261 42.694,47.450 C43.309,47.593 43.963,47.606 43.963,47.606 C50.028,47.777 54.899,43.047 54.957,43.007 C55.013,42.961 55.060,42.906 55.060,42.906 C55.060,42.906 55.006,43.032 55.000,43.046 C54.124,45.016 49.051,48.588 44.002,48.486 L43.986,48.492 C42.815,48.487 41.392,48.186 40.653,47.269 C39.482,45.818 40.090,43.406 41.955,43.349 C41.957,43.349 42.386,43.339 42.577,43.334 C47.195,43.193 51.338,41.496 54.305,37.953 C54.713,37.447 54.257,36.751 53.373,36.729 C53.365,36.729 53.358,36.726 53.352,36.720 C52.304,35.598 51.383,35.201 50.563,34.785 C48.844,33.909 49.006,34.666 48.606,30.420 C48.498,29.275 48.281,27.713 47.275,27.115 C47.012,26.958 46.724,26.890 46.425,26.890 C46.129,26.890 45.985,26.951 45.927,26.964 C45.376,27.086 45.063,27.398 44.670,27.760 C42.816,29.470 41.333,29.006 39.121,28.986 C37.043,28.968 35.209,30.417 34.858,32.643 L34.857,32.644 C34.687,33.809 34.797,34.993 34.980,35.525 C34.980,35.525 34.416,35.150 34.147,34.818 C34.472,36.851 36.328,38.179 36.328,38.179 C36.035,38.247 35.615,38.219 35.615,38.219 C35.617,38.220 36.674,39.056 37.591,39.348 C37.352,39.497 36.143,40.690 35.519,42.332 C34.936,43.870 35.174,45.715 35.174,45.715 L35.681,44.960 C35.681,44.960 35.349,46.643 35.990,48.274 C36.203,47.789 36.667,46.923 36.667,46.923 C36.667,46.923 36.593,48.731 37.464,50.212 C37.486,49.870 37.617,49.000 37.617,49.000 C37.617,49.000 38.117,50.544 39.271,51.624 C41.431,53.540 47.151,53.887 51.505,50.466 Z" class="cls-8"/>
      <path d="M54.421,42.333 C54.421,42.333 54.425,40.848 53.738,39.692 C53.209,40.287 51.739,41.467 49.811,42.382 C48.003,43.241 45.591,43.993 42.601,44.092 L42.601,44.092 C41.764,44.129 41.246,43.993 40.954,44.968 C40.931,45.052 40.917,45.147 40.908,45.243 L40.908,45.253 C40.908,45.253 40.908,45.253 40.908,45.253 C40.905,45.284 40.903,45.315 40.902,45.347 C40.899,45.436 40.900,45.514 40.903,45.583 C40.903,45.585 40.903,45.586 40.903,45.588 C40.904,45.593 40.904,45.598 40.904,45.603 C40.907,45.646 40.911,45.687 40.915,45.726 C40.915,45.727 40.916,45.730 40.916,45.731 C40.916,45.733 40.916,45.735 40.917,45.737 C40.936,45.892 40.967,45.964 40.971,45.973 C40.971,45.973 40.971,45.973 40.971,45.974 L40.975,45.987 C41.214,46.786 41.828,47.140 42.634,47.327 C43.249,47.471 43.903,47.484 43.903,47.484 C48.850,47.623 53.002,44.500 54.395,43.324 C54.419,42.994 54.433,42.759 54.421,42.333 ZM40.208,15.904 C41.390,15.359 42.657,14.928 43.872,14.804 C42.665,15.076 41.195,15.701 39.453,16.767 C39.410,16.792 35.330,19.546 32.838,22.018 C31.480,23.366 26.025,29.907 26.029,29.901 C27.026,28.015 27.683,27.089 29.261,25.104 C30.154,23.981 31.106,22.889 32.081,21.882 C32.409,21.543 32.739,21.214 33.070,20.895 L33.070,20.895 L33.070,20.895 C33.197,20.774 36.047,17.856 40.208,15.904 Z" class="cls-9"/>
      <path d="M51.478,50.402 C50.887,50.867 50.271,51.262 49.642,51.593 C48.187,51.039 47.294,49.860 47.294,49.860 C47.294,49.860 48.541,49.565 50.209,48.716 C52.236,47.685 54.131,46.195 55.580,44.320 C55.522,44.432 54.921,47.694 51.478,50.402 ZM47.519,34.681 C46.815,34.179 45.650,34.578 45.393,35.408 C45.800,35.428 46.232,35.736 46.205,36.131 C46.493,35.852 46.901,35.695 47.299,35.702 C47.107,35.394 47.204,34.864 47.519,34.681 ZM40.136,44.798 C40.358,43.972 40.984,43.317 41.943,43.288 C41.945,43.288 42.373,43.278 42.564,43.274 C47.175,43.132 51.311,41.436 54.273,37.895 C54.681,37.388 54.226,36.693 53.343,36.672 C53.339,36.672 53.330,36.672 53.330,36.672 C53.181,36.830 53.154,37.118 52.907,37.550 C52.006,39.117 50.760,39.833 49.099,40.664 C44.004,43.203 41.362,42.022 40.302,43.577 C39.994,44.034 39.988,44.545 40.136,44.798 L40.136,44.798 ZM49.354,34.149 C48.867,33.799 48.849,33.188 48.584,30.364 C48.499,29.464 48.346,28.305 47.796,27.561 C47.682,27.461 47.522,27.347 47.291,27.347 C46.943,27.332 46.550,27.692 46.327,27.939 C45.695,28.853 45.090,29.442 44.021,29.952 C42.939,30.442 41.911,30.620 40.843,30.586 C40.062,30.562 39.378,30.432 38.707,30.424 C37.464,30.404 36.387,30.808 35.601,31.800 C35.063,32.481 34.847,33.201 34.778,34.057 C34.781,34.160 34.785,34.257 34.791,34.349 C34.800,34.485 34.813,34.615 34.828,34.737 C34.883,35.171 34.961,35.396 34.961,35.396 C34.961,35.399 34.960,35.403 34.959,35.406 C34.966,35.427 34.972,35.448 34.979,35.467 C34.979,35.467 34.416,35.092 34.148,34.761 C34.419,36.455 35.751,37.660 36.186,38.013 C36.212,38.033 36.237,38.053 36.262,38.072 C36.264,38.074 36.266,38.076 36.268,38.078 C36.304,38.106 36.325,38.121 36.325,38.121 C36.033,38.188 35.613,38.160 35.613,38.160 C35.615,38.162 36.670,38.997 37.586,39.289 C38.802,38.260 40.180,37.866 41.311,37.744 C41.996,37.318 42.733,36.900 43.525,36.496 C43.285,35.002 44.608,33.498 46.274,33.353 C47.531,33.261 48.142,33.825 48.582,34.428 C48.821,34.352 49.090,34.269 49.392,34.180 C49.379,34.171 49.366,34.161 49.354,34.149 ZM49.955,44.211 C49.942,44.211 49.929,44.214 49.908,44.218 C49.406,44.335 44.229,46.342 40.956,45.313 C40.942,45.493 40.947,45.870 41.020,46.033 C41.020,46.033 41.020,46.034 41.020,46.034 C41.515,46.134 42.142,46.197 42.869,46.197 C47.176,46.197 50.279,44.237 49.955,44.211 ZM25.862,43.808 C25.863,43.807 25.864,43.807 25.865,43.806 C26.128,43.523 26.238,43.129 26.175,42.752 C26.079,42.210 25.464,42.100 25.058,41.679 C25.052,41.672 25.046,41.665 25.039,41.658 C25.032,41.651 25.026,41.643 25.019,41.636 C25.019,41.636 25.018,41.635 25.018,41.635 C24.836,41.424 24.772,41.185 24.787,40.971 C24.819,40.417 25.311,40.261 25.567,40.362 C25.567,40.362 25.871,40.435 26.107,40.763 C26.107,40.763 26.107,40.763 26.107,40.762 C26.071,40.654 26.078,40.478 25.894,40.217 C25.592,39.789 24.899,39.354 23.916,39.562 L23.916,39.562 C23.734,39.601 23.836,39.579 23.657,39.629 C23.629,39.637 23.603,39.645 23.581,39.654 C23.525,39.681 23.473,39.699 23.423,39.726 L23.423,39.726 C23.397,39.740 23.249,39.807 23.072,39.941 C21.967,41.369 23.838,43.958 25.862,43.808 Z" class="cls-10"/>
      <path d="M42.158,34.939 C42.252,35.076 42.277,35.179 42.239,35.222 C42.164,35.309 41.895,35.191 41.498,35.036 C40.482,34.658 39.734,34.600 38.408,35.101 C38.073,35.229 37.836,35.327 37.722,35.310 C37.536,35.283 37.716,34.943 38.122,34.613 C38.939,33.962 40.062,33.760 41.021,34.117 C41.440,34.271 41.912,34.579 42.158,34.939 ZM41.957,35.978 C41.678,35.765 41.166,35.622 40.633,35.713 C40.521,35.730 40.418,35.764 40.317,35.792 C40.279,35.801 40.244,35.814 40.209,35.829 C39.989,35.921 39.798,36.021 39.613,36.198 C39.401,36.403 39.341,36.593 39.402,36.640 C39.462,36.688 39.609,36.617 39.836,36.525 C40.597,36.209 41.135,36.201 41.647,36.236 C41.895,36.253 42.060,36.268 42.099,36.201 C42.126,36.155 42.077,36.068 41.957,35.978 ZM25.582,39.873 L25.582,39.873 L25.582,39.873 C25.707,39.972 25.803,40.078 25.874,40.179 C26.108,40.510 26.034,40.702 26.130,40.797 C26.164,40.831 26.214,40.841 26.263,40.821 C26.396,40.766 26.461,40.555 26.473,40.409 L26.473,40.409 L26.473,40.408 L26.473,40.408 C26.507,40.054 26.320,39.657 26.072,39.376 L26.072,39.376 L26.071,39.375 L26.071,39.375 C25.919,39.199 25.720,39.035 25.482,38.902 C25.244,38.770 24.968,38.670 24.665,38.623 C24.140,38.542 23.624,38.646 23.480,38.689 L23.481,38.689 C23.407,38.710 23.315,38.730 23.236,38.760 C22.381,39.093 21.818,39.705 21.567,40.515 L21.567,40.515 L21.567,40.516 C21.474,40.824 21.438,41.122 21.438,41.397 C21.438,41.634 21.465,41.855 21.508,42.051 L21.508,42.051 L21.508,42.051 L21.508,42.051 C21.580,42.381 21.728,42.753 21.959,42.997 L21.959,42.997 L21.960,42.999 L21.960,42.999 C22.249,43.310 22.565,43.250 22.430,42.961 C22.398,42.880 22.223,42.552 22.200,41.957 C22.185,41.568 22.238,41.163 22.381,40.794 C22.460,40.594 22.568,40.400 22.709,40.225 C23.000,39.870 23.357,39.711 23.399,39.688 L23.399,39.688 C23.449,39.661 23.501,39.643 23.558,39.617 C23.580,39.607 23.605,39.599 23.634,39.591 C23.813,39.541 23.711,39.563 23.893,39.524 L23.893,39.524 C24.577,39.380 25.166,39.538 25.582,39.873 ZM25.436,41.193 C25.341,41.118 25.297,41.054 25.271,40.956 C25.233,40.777 25.253,40.673 25.406,40.565 C25.524,40.485 25.619,40.446 25.619,40.395 C25.624,40.299 25.230,40.200 24.954,40.471 C24.725,40.715 24.653,41.223 25.018,41.619 C25.425,42.058 26.058,42.161 26.156,42.713 C26.169,42.791 26.179,42.877 26.172,42.964 C26.173,43.062 26.140,43.204 26.139,43.213 C26.016,43.745 25.510,44.253 24.676,44.124 C24.523,44.101 24.423,44.083 24.393,44.125 C24.329,44.214 24.686,44.623 25.341,44.609 C25.981,44.595 26.617,44.116 26.820,43.396 C26.823,43.387 26.883,43.183 26.888,43.000 C26.899,42.864 26.889,42.725 26.864,42.580 C26.697,41.655 25.778,41.465 25.436,41.193 ZM47.754,34.594 C47.501,34.554 47.252,34.804 47.198,35.150 C47.144,35.497 47.305,35.810 47.558,35.849 C47.811,35.889 48.061,35.640 48.115,35.293 C48.169,34.946 48.008,34.633 47.754,34.594 ZM44.974,35.605 C44.835,35.858 45.004,36.219 45.352,36.409 C45.700,36.600 46.095,36.548 46.234,36.295 C46.374,36.041 46.204,35.682 45.856,35.491 C45.508,35.301 45.113,35.351 44.974,35.605 ZM34.786,25.350 C39.575,22.250 44.358,21.893 45.997,23.151 C45.997,23.151 45.997,23.151 45.997,23.151 C45.995,23.143 45.968,23.070 45.958,23.051 L45.958,23.051 C45.542,22.168 44.571,21.551 43.706,21.304 C43.858,21.461 44.077,21.750 44.166,21.921 C43.513,21.473 42.646,21.079 41.741,20.891 C41.741,20.891 41.849,20.969 41.867,20.986 C42.047,21.154 42.288,21.419 42.386,21.647 C41.521,21.300 40.427,21.106 39.491,21.285 C39.478,21.288 39.374,21.312 39.374,21.312 C39.374,21.312 39.496,21.343 39.523,21.351 C39.833,21.443 40.276,21.632 40.471,21.891 C38.917,21.618 37.208,21.920 36.286,22.435 C36.404,22.430 36.403,22.429 36.503,22.432 C36.843,22.441 37.526,22.487 37.813,22.670 C36.832,22.869 35.414,23.306 34.650,23.963 C34.785,23.947 35.550,23.850 35.863,23.900 C31.660,26.302 29.747,29.935 29.747,29.935 L29.747,29.935 C30.986,28.322 32.594,26.769 34.786,25.350 Z" class="cls-11"/>
      <path d="M46.121,32.193 C46.115,31.865 46.166,31.321 46.470,31.220 L46.470,31.220 C46.470,31.220 46.470,31.220 46.470,31.220 L46.470,31.220 C46.989,31.036 47.676,32.392 47.707,33.595 C47.297,33.386 46.816,33.297 46.320,33.341 C46.196,32.953 46.136,32.589 46.121,32.193 Z" class="cls-3"/>
    </g>
  </g>
</svg>
