<svg xmlns="http://www.w3.org/2000/svg" xmlns:xlink="http://www.w3.org/1999/xlink" preserveAspectRatio="xMidYMid" width="72" height="72" viewBox="0 0 72 72">
  <defs>
    <style>
      .cls-1 {
        fill: #ededed;
      }

      .cls-2 {
        fill: #00a154;
      }

      .cls-2, .cls-3, .cls-4 {
        fill-rule: evenodd;
      }

      .cls-3 {
        fill: #fff;
      }

      .cls-4 {
        fill: #000;
      }
    </style>
  </defs>
  <g>
    <rect width="72" height="72" rx="12" ry="12" class="cls-1"/>
    <path d="M18.000,57.000 L24.000,57.000 L18.000,63.000 L18.000,57.000 Z" class="cls-2"/>
    <path d="M22.000,33.000 L50.000,33.000 C52.209,33.000 54.000,34.791 54.000,37.000 L54.000,53.000 C54.000,55.209 52.209,57.000 50.000,57.000 L18.000,57.000 L18.000,37.000 C18.000,34.791 19.791,33.000 22.000,33.000 Z" class="cls-2"/>
    <path d="M46.936,46.344 C46.824,46.467 46.667,46.528 46.464,46.528 L41.984,46.528 C42.059,47.157 42.251,47.613 42.560,47.896 C42.869,48.179 43.312,48.320 43.888,48.320 C44.197,48.320 44.475,48.283 44.720,48.208 C44.965,48.133 45.237,48.032 45.536,47.904 C45.685,47.840 45.829,47.784 45.968,47.736 C46.107,47.688 46.229,47.664 46.336,47.664 C46.549,47.664 46.723,47.749 46.856,47.920 C46.989,48.091 47.056,48.309 47.056,48.576 C47.056,48.757 47.003,48.925 46.896,49.080 C46.789,49.235 46.640,49.365 46.448,49.472 C46.085,49.664 45.664,49.821 45.184,49.944 C44.704,50.066 44.261,50.128 43.856,50.128 C43.003,50.128 42.259,49.963 41.624,49.632 C40.989,49.301 40.501,48.829 40.160,48.216 C39.819,47.603 39.648,46.880 39.648,46.048 C39.648,45.248 39.813,44.539 40.144,43.920 C40.475,43.301 40.933,42.819 41.520,42.472 C42.107,42.125 42.773,41.952 43.520,41.952 C44.235,41.952 44.861,42.109 45.400,42.424 C45.939,42.739 46.357,43.187 46.656,43.768 C46.955,44.349 47.104,45.029 47.104,45.808 C47.104,46.043 47.048,46.221 46.936,46.344 ZM44.648,44.048 C44.397,43.760 44.043,43.616 43.584,43.616 C43.125,43.616 42.757,43.763 42.480,44.056 C42.203,44.349 42.037,44.773 41.984,45.328 L45.072,45.328 C45.040,44.763 44.899,44.336 44.648,44.048 ZM37.104,48.024 C37.253,48.189 37.472,48.283 37.760,48.304 L38.208,48.336 C38.528,48.357 38.763,48.437 38.912,48.576 C39.061,48.715 39.136,48.917 39.136,49.184 C39.136,49.493 39.013,49.728 38.768,49.888 C38.523,50.048 38.171,50.112 37.712,50.080 L37.264,50.048 C35.397,49.899 34.464,48.923 34.464,47.120 L34.464,43.952 L33.824,43.952 C33.472,43.952 33.205,43.875 33.024,43.720 C32.843,43.565 32.752,43.344 32.752,43.056 C32.752,42.757 32.843,42.531 33.024,42.376 C33.205,42.221 33.472,42.144 33.824,42.144 L34.464,42.144 L34.464,40.896 C34.464,40.544 34.573,40.267 34.792,40.064 C35.011,39.861 35.307,39.760 35.680,39.760 C36.053,39.760 36.347,39.861 36.560,40.064 C36.773,40.267 36.880,40.544 36.880,40.896 L36.880,42.144 L38.000,42.144 C38.725,42.144 39.088,42.448 39.088,43.056 C39.088,43.344 38.997,43.565 38.816,43.720 C38.635,43.875 38.363,43.952 38.000,43.952 L36.880,43.952 L36.880,47.296 C36.880,47.616 36.955,47.859 37.104,48.024 ZM30.784,40.704 C30.357,40.704 30.021,40.595 29.776,40.376 C29.531,40.157 29.408,39.861 29.408,39.488 C29.408,39.115 29.531,38.821 29.776,38.608 C30.021,38.395 30.357,38.288 30.784,38.288 C31.200,38.288 31.533,38.397 31.784,38.616 C32.035,38.835 32.160,39.125 32.160,39.488 C32.160,39.861 32.037,40.157 31.792,40.376 C31.547,40.595 31.211,40.704 30.784,40.704 ZM26.512,50.096 C26.160,50.096 25.869,50.000 25.640,49.808 C25.411,49.616 25.296,49.333 25.296,48.960 L25.296,39.776 C25.296,39.403 25.411,39.120 25.640,38.928 C25.869,38.736 26.160,38.640 26.512,38.640 C26.853,38.640 27.139,38.736 27.368,38.928 C27.597,39.120 27.712,39.403 27.712,39.776 L27.712,48.960 C27.712,49.333 27.597,49.616 27.368,49.808 C27.139,50.000 26.853,50.096 26.512,50.096 ZM30.784,41.984 C31.125,41.984 31.411,42.080 31.640,42.272 C31.869,42.464 31.984,42.747 31.984,43.120 L31.984,48.960 C31.984,49.333 31.869,49.616 31.640,49.808 C31.411,50.000 31.125,50.096 30.784,50.096 C30.432,50.096 30.141,50.000 29.912,49.808 C29.683,49.616 29.568,49.333 29.568,48.960 L29.568,43.120 C29.568,42.747 29.685,42.464 29.920,42.272 C30.155,42.080 30.443,41.984 30.784,41.984 Z" class="cls-3"/>
    <path d="M58.176,19.728 C58.005,19.899 57.701,20.005 57.264,20.048 L56.784,20.096 C56.197,20.160 55.773,20.352 55.512,20.672 C55.250,20.992 55.120,21.403 55.120,21.904 L55.120,24.960 C55.120,25.333 55.005,25.616 54.776,25.808 C54.546,26.000 54.261,26.096 53.920,26.096 C53.568,26.096 53.277,26.000 53.048,25.808 C52.818,25.616 52.704,25.333 52.704,24.960 L52.704,19.088 C52.704,18.736 52.821,18.464 53.056,18.272 C53.290,18.080 53.573,17.984 53.904,17.984 C54.224,17.984 54.490,18.077 54.704,18.264 C54.917,18.451 55.024,18.709 55.024,19.040 L55.024,19.472 C55.216,19.013 55.506,18.661 55.896,18.416 C56.285,18.171 56.709,18.032 57.168,18.000 L57.392,17.984 C57.712,17.963 57.965,18.035 58.152,18.200 C58.338,18.365 58.432,18.613 58.432,18.944 C58.432,19.296 58.346,19.557 58.176,19.728 ZM50.608,22.528 L46.128,22.528 C46.203,23.157 46.395,23.613 46.704,23.896 C47.013,24.179 47.456,24.320 48.032,24.320 C48.341,24.320 48.619,24.283 48.864,24.208 C49.109,24.133 49.381,24.032 49.680,23.904 C49.829,23.840 49.973,23.784 50.112,23.736 C50.251,23.688 50.373,23.664 50.480,23.664 C50.693,23.664 50.867,23.749 51.000,23.920 C51.133,24.091 51.200,24.309 51.200,24.576 C51.200,24.757 51.147,24.925 51.040,25.080 C50.933,25.235 50.784,25.365 50.592,25.472 C50.229,25.664 49.808,25.821 49.328,25.944 C48.848,26.066 48.405,26.128 48.000,26.128 C47.147,26.128 46.403,25.963 45.768,25.632 C45.133,25.301 44.645,24.829 44.304,24.216 C43.963,23.603 43.792,22.880 43.792,22.048 C43.792,21.248 43.957,20.539 44.288,19.920 C44.619,19.301 45.077,18.819 45.664,18.472 C46.251,18.125 46.917,17.952 47.664,17.952 C48.379,17.952 49.005,18.109 49.544,18.424 C50.083,18.739 50.501,19.187 50.800,19.768 C51.099,20.349 51.248,21.029 51.248,21.808 C51.248,22.043 51.192,22.221 51.080,22.344 C50.968,22.467 50.811,22.528 50.608,22.528 ZM48.792,20.048 C48.541,19.760 48.187,19.616 47.728,19.616 C47.269,19.616 46.901,19.763 46.624,20.056 C46.347,20.349 46.181,20.773 46.128,21.328 L49.216,21.328 C49.184,20.763 49.043,20.336 48.792,20.048 ZM41.120,26.096 C40.768,26.096 40.477,26.000 40.248,25.808 C40.019,25.616 39.904,25.333 39.904,24.960 L39.904,15.776 C39.904,15.403 40.019,15.120 40.248,14.928 C40.477,14.736 40.768,14.640 41.120,14.640 C41.461,14.640 41.747,14.736 41.976,14.928 C42.205,15.120 42.320,15.403 42.320,15.776 L42.320,24.960 C42.320,25.333 42.205,25.616 41.976,25.808 C41.747,26.000 41.461,26.096 41.120,26.096 ZM36.848,16.704 C36.421,16.704 36.085,16.595 35.840,16.376 C35.595,16.157 35.472,15.861 35.472,15.488 C35.472,15.115 35.595,14.821 35.840,14.608 C36.085,14.395 36.421,14.288 36.848,14.288 C37.264,14.288 37.597,14.397 37.848,14.616 C38.099,14.835 38.224,15.125 38.224,15.488 C38.224,15.861 38.101,16.157 37.856,16.376 C37.611,16.595 37.275,16.704 36.848,16.704 ZM32.672,26.096 C32.331,26.096 32.056,25.992 31.848,25.784 C31.640,25.576 31.536,25.307 31.536,24.976 L31.536,24.864 C31.376,25.259 31.110,25.568 30.736,25.792 C30.363,26.016 29.926,26.128 29.424,26.128 C28.891,26.128 28.408,26.021 27.976,25.808 C27.544,25.595 27.203,25.296 26.952,24.912 C26.702,24.528 26.576,24.101 26.576,23.632 C26.576,23.056 26.723,22.603 27.016,22.272 C27.310,21.941 27.782,21.701 28.432,21.552 C29.083,21.403 29.974,21.328 31.104,21.328 L31.520,21.328 L31.520,21.040 C31.520,20.592 31.422,20.267 31.224,20.064 C31.027,19.861 30.699,19.760 30.240,19.760 C29.782,19.760 29.120,19.920 28.256,20.240 C28.011,20.357 27.803,20.416 27.632,20.416 C27.398,20.416 27.211,20.333 27.072,20.168 C26.934,20.003 26.864,19.787 26.864,19.520 C26.864,19.307 26.912,19.131 27.008,18.992 C27.104,18.853 27.259,18.725 27.472,18.608 C27.846,18.405 28.302,18.245 28.840,18.128 C29.379,18.011 29.910,17.952 30.432,17.952 C31.584,17.952 32.438,18.232 32.992,18.792 C33.547,19.352 33.824,20.208 33.824,21.360 L33.824,24.976 C33.824,25.328 33.723,25.603 33.520,25.800 C33.318,25.997 33.035,26.096 32.672,26.096 ZM31.520,22.496 L31.248,22.496 C30.384,22.496 29.779,22.565 29.432,22.704 C29.086,22.843 28.912,23.093 28.912,23.456 C28.912,23.755 29.011,23.997 29.208,24.184 C29.406,24.371 29.654,24.464 29.952,24.464 C30.422,24.464 30.800,24.307 31.088,23.992 C31.376,23.677 31.520,23.269 31.520,22.768 L31.520,22.496 ZM23.872,26.096 C23.531,26.096 23.243,26.000 23.008,25.808 C22.774,25.616 22.656,25.333 22.656,24.960 L22.656,21.232 C22.656,20.720 22.568,20.360 22.392,20.152 C22.216,19.944 21.947,19.840 21.584,19.840 C21.136,19.840 20.779,19.995 20.512,20.304 C20.246,20.613 20.112,21.045 20.112,21.600 L20.112,24.960 C20.112,25.333 20.000,25.616 19.776,25.808 C19.552,26.000 19.264,26.096 18.912,26.096 C18.571,26.096 18.283,26.000 18.048,25.808 C17.814,25.616 17.696,25.333 17.696,24.960 L17.696,21.232 C17.696,20.720 17.608,20.360 17.432,20.152 C17.256,19.944 16.987,19.840 16.624,19.840 C16.176,19.840 15.819,19.995 15.552,20.304 C15.286,20.613 15.152,21.045 15.152,21.600 L15.152,24.960 C15.152,25.333 15.038,25.616 14.808,25.808 C14.579,26.000 14.294,26.096 13.952,26.096 C13.611,26.096 13.323,26.000 13.088,25.808 C12.854,25.616 12.736,25.333 12.736,24.960 L12.736,19.088 C12.736,18.736 12.856,18.464 13.096,18.272 C13.336,18.080 13.627,17.984 13.968,17.984 C14.288,17.984 14.555,18.077 14.768,18.264 C14.982,18.451 15.088,18.709 15.088,19.040 L15.088,19.200 C15.344,18.795 15.678,18.485 16.088,18.272 C16.499,18.059 16.966,17.952 17.488,17.952 C18.054,17.952 18.531,18.067 18.920,18.296 C19.310,18.525 19.611,18.896 19.824,19.408 C20.070,18.960 20.419,18.605 20.872,18.344 C21.326,18.083 21.840,17.952 22.416,17.952 C23.270,17.952 23.926,18.211 24.384,18.728 C24.843,19.245 25.072,20.091 25.072,21.264 L25.072,24.960 C25.072,25.333 24.960,25.616 24.736,25.808 C24.512,26.000 24.224,26.096 23.872,26.096 ZM36.848,17.984 C37.189,17.984 37.475,18.080 37.704,18.272 C37.933,18.464 38.048,18.747 38.048,19.120 L38.048,24.960 C38.048,25.333 37.933,25.616 37.704,25.808 C37.475,26.000 37.189,26.096 36.848,26.096 C36.496,26.096 36.205,26.000 35.976,25.808 C35.747,25.616 35.632,25.333 35.632,24.960 L35.632,19.120 C35.632,18.747 35.749,18.464 35.984,18.272 C36.219,18.080 36.507,17.984 36.848,17.984 Z" class="cls-4"/>
  </g>
</svg>
