<svg xmlns="http://www.w3.org/2000/svg" xmlns:xlink="http://www.w3.org/1999/xlink" preserveAspectRatio="xMidYMid" width="72" height="72" viewBox="0 0 72 72">
  <defs>
    <style>
      .cls-1 {
        fill: #72b338;
      }

      .cls-2 {
        fill: #6aa734;
      }

      .cls-2, .cls-3 {
        fill-rule: evenodd;
      }

      .cls-3 {
        fill: #fff;
      }
    </style>
  </defs>
  <g>
    <rect width="72" height="72" rx="12" ry="12" class="cls-1"/>
    <path d="M54.063,39.891 C52.672,41.115 50.654,40.582 50.654,38.187 L50.654,31.057 C50.654,30.078 49.926,29.378 48.945,29.378 L41.754,29.378 C39.355,29.378 38.821,27.360 40.048,25.972 C42.068,23.686 40.986,20.152 37.310,19.998 C33.634,20.152 32.552,23.680 34.572,25.966 C35.799,27.355 35.265,29.378 32.867,29.378 L25.782,29.378 C24.801,29.378 24.000,30.078 24.000,31.057 L24.000,38.334 C24.000,38.761 24.191,39.479 24.601,39.669 C25.008,39.858 25.535,39.661 25.967,39.266 C27.299,38.054 29.088,37.717 30.606,38.383 C32.133,39.056 33.191,40.634 33.191,42.605 L33.191,42.640 L33.191,42.663 C33.191,44.629 32.120,46.191 30.586,46.866 C29.051,47.541 27.254,47.178 25.918,45.962 C25.489,45.571 24.987,45.385 24.596,45.566 C24.194,45.754 24.000,46.441 24.000,46.868 L24.000,54.192 C24.000,55.170 24.801,55.999 25.782,55.999 L48.945,55.999 C49.926,55.999 50.654,55.170 50.654,54.192 L50.654,47.062 C50.654,44.666 52.656,44.134 54.046,45.358 C56.335,47.376 59.846,46.295 60.000,42.624 C59.846,38.953 56.352,37.873 54.063,39.891 Z" class="cls-2"/>
    <path d="M50.063,35.890 C48.672,37.115 46.654,36.582 46.654,34.187 L46.654,27.057 C46.654,26.078 45.926,25.378 44.945,25.378 L37.754,25.378 C35.355,25.378 34.821,23.360 36.048,21.972 C38.068,19.686 36.986,16.152 33.310,15.999 C29.634,16.152 28.552,19.680 30.572,21.967 C31.799,23.355 31.265,25.378 28.867,25.378 L21.781,25.378 C20.801,25.378 20.000,26.078 20.000,27.057 L20.000,34.333 C20.000,34.760 20.191,35.479 20.601,35.669 C21.008,35.858 21.535,35.661 21.967,35.267 C23.299,34.054 25.088,33.717 26.606,34.383 C28.132,35.056 29.191,36.633 29.191,38.605 L29.191,38.640 L29.191,38.663 C29.191,40.628 28.120,42.191 26.586,42.866 C25.051,43.541 23.254,43.178 21.918,41.961 C21.490,41.571 20.987,41.385 20.596,41.566 C20.194,41.754 20.000,42.441 20.000,42.867 L20.000,50.192 C20.000,51.170 20.801,51.999 21.781,51.999 L44.945,51.999 C45.926,51.999 46.654,51.170 46.654,50.192 L46.654,43.062 C46.654,40.666 48.656,40.134 50.046,41.358 C52.335,43.376 55.846,42.295 56.000,38.624 C55.846,34.953 52.352,33.873 50.063,35.890 Z" class="cls-3"/>
  </g>
</svg>
