<svg xmlns="http://www.w3.org/2000/svg" xmlns:xlink="http://www.w3.org/1999/xlink" preserveAspectRatio="xMidYMid" width="72" height="72" viewBox="0 0 72 72">
  <defs>
    <style>
      .cls-1 {
        fill: #ffcd1c;
      }

      .cls-1, .cls-2, .cls-3, .cls-4, .cls-6 {
        fill-rule: evenodd;
      }

      .cls-2 {
        fill: #ffae00;
      }

      .cls-3 {
        fill: #ffe074;
      }

      .cls-4 {
        fill: #ff9000;
      }

      .cls-5 {
        fill: #fff;
        stroke: #684c46;
        stroke-linecap: round;
        stroke-width: 2px;
        stroke-dasharray: 0.001,10;
      }

      .cls-6 {
        fill: #684c46;
      }
    </style>
  </defs>
  <g>
    <path d="M36.000,36.000 L72.000,36.000 L72.000,60.000 C72.000,66.627 66.627,72.000 60.000,72.000 L36.000,72.000 L36.000,36.000 Z" class="cls-1"/>
    <path d="M-0.000,36.000 L36.000,36.000 L36.000,72.000 L12.000,72.000 C5.373,72.000 -0.000,66.627 -0.000,60.000 L-0.000,36.000 Z" class="cls-2"/>
    <path d="M36.000,-0.000 L60.000,-0.000 C66.627,-0.000 72.000,5.373 72.000,12.000 L72.000,36.000 L36.000,36.000 L36.000,-0.000 Z" class="cls-3"/>
    <path d="M12.000,-0.000 L36.000,-0.000 L36.000,36.000 L-0.000,36.000 L-0.000,12.000 C-0.000,5.373 5.373,-0.000 12.000,-0.000 Z" class="cls-4"/>
    <circle cx="36" cy="36" r="25" class="cls-5"/>
    <path d="M48.360,41.268 C48.056,41.564 47.672,41.712 47.208,41.712 L46.896,41.712 L46.896,43.680 C46.896,44.112 46.736,44.472 46.416,44.760 C46.096,45.048 45.704,45.192 45.240,45.192 C44.776,45.192 44.384,45.048 44.064,44.760 C43.744,44.472 43.584,44.112 43.584,43.680 L43.584,41.712 L38.304,41.712 C37.792,41.712 37.380,41.548 37.068,41.220 C36.756,40.892 36.600,40.512 36.600,40.080 C36.600,40.032 36.620,39.920 36.660,39.744 C36.700,39.568 36.760,39.400 36.840,39.240 L41.448,28.608 C41.576,28.320 41.776,28.092 42.048,27.924 C42.320,27.756 42.616,27.672 42.936,27.672 C43.144,27.672 43.344,27.712 43.536,27.792 C43.728,27.872 43.904,27.984 44.064,28.128 C44.224,28.272 44.352,28.440 44.448,28.632 C44.544,28.824 44.592,29.024 44.592,29.232 C44.592,29.312 44.588,29.392 44.580,29.472 C44.572,29.552 44.544,29.648 44.496,29.760 C44.144,30.560 43.808,31.328 43.488,32.064 C43.168,32.800 42.852,33.524 42.540,34.236 C42.228,34.948 41.912,35.672 41.592,36.408 C41.272,37.144 40.936,37.912 40.584,38.712 L43.584,38.712 L43.584,35.040 C43.584,34.608 43.744,34.248 44.064,33.960 C44.384,33.672 44.776,33.528 45.240,33.528 C45.688,33.528 46.076,33.672 46.404,33.960 C46.732,34.248 46.896,34.608 46.896,35.040 L46.896,38.712 L47.208,38.712 C47.672,38.712 48.056,38.860 48.360,39.156 C48.664,39.452 48.816,39.800 48.816,40.200 C48.816,40.616 48.664,40.972 48.360,41.268 ZM33.840,36.252 C34.608,37.092 34.992,38.160 34.992,39.456 C34.992,40.112 34.876,40.776 34.644,41.448 C34.412,42.120 34.052,42.736 33.564,43.296 C33.076,43.856 32.456,44.312 31.704,44.664 C30.952,45.016 30.056,45.192 29.016,45.192 C28.728,45.192 28.308,45.164 27.756,45.108 C27.204,45.052 26.652,44.944 26.100,44.784 C25.548,44.624 25.068,44.392 24.660,44.088 C24.252,43.784 24.048,43.384 24.048,42.888 C24.048,42.488 24.200,42.140 24.504,41.844 C24.808,41.548 25.184,41.400 25.632,41.400 C25.888,41.400 26.124,41.448 26.340,41.544 C26.556,41.640 26.784,41.740 27.024,41.844 C27.264,41.948 27.532,42.048 27.828,42.144 C28.124,42.240 28.480,42.288 28.896,42.288 C29.424,42.288 29.864,42.208 30.216,42.048 C30.568,41.888 30.852,41.676 31.068,41.412 C31.284,41.148 31.436,40.860 31.524,40.548 C31.612,40.236 31.656,39.920 31.656,39.600 C31.656,38.800 31.412,38.232 30.924,37.896 C30.436,37.560 29.768,37.392 28.920,37.392 C28.760,37.392 28.636,37.404 28.548,37.428 C28.460,37.452 28.376,37.484 28.296,37.524 C28.216,37.564 28.132,37.596 28.044,37.620 C27.956,37.644 27.840,37.656 27.696,37.656 C27.264,37.656 26.896,37.504 26.592,37.200 C26.288,36.896 26.136,36.520 26.136,36.072 C26.136,35.816 26.192,35.624 26.304,35.496 L29.880,31.152 L26.016,31.152 C25.552,31.152 25.160,31.004 24.840,30.708 C24.520,30.412 24.360,30.056 24.360,29.640 C24.360,29.208 24.520,28.836 24.840,28.524 C25.160,28.212 25.552,28.056 26.016,28.056 L32.712,28.056 C33.224,28.056 33.644,28.212 33.972,28.524 C34.300,28.836 34.464,29.224 34.464,29.688 C34.464,30.104 34.336,30.464 34.080,30.768 L30.816,34.656 C32.064,34.880 33.072,35.412 33.840,36.252 Z" class="cls-6"/>
  </g>
</svg>
