<svg xmlns="http://www.w3.org/2000/svg" xmlns:xlink="http://www.w3.org/1999/xlink" preserveAspectRatio="xMidYMid" width="72" height="72" viewBox="0 0 72 72">
  <defs>
    <style>
      .cls-1 {
        fill: #fff;
      }

      .cls-2 {
        fill: #ecd7bf;
      }

      .cls-2, .cls-4, .cls-5, .cls-6, .cls-7 {
        fill-rule: evenodd;
      }

      .cls-3 {
        fill: #fdeedc;
      }

      .cls-4 {
        fill: #ff5f00;
      }

      .cls-5 {
        fill: #eb001b;
      }

      .cls-6 {
        fill: #f79e1b;
      }

      .cls-7 {
        fill: #000;
      }
    </style>
  </defs>
  <g>
    <rect width="72" height="72" rx="12" ry="12" class="cls-1"/>
    <path d="M56.000,8.000 L20.000,8.000 C13.373,8.000 8.000,13.373 8.000,20.000 L8.000,56.000 C8.000,57.760 8.388,59.426 9.069,60.931 C4.904,59.049 2.000,54.868 2.000,50.000 L2.000,14.000 C2.000,7.373 7.373,2.000 14.000,2.000 L50.000,2.000 C54.868,2.000 59.049,4.904 60.931,9.069 C59.426,8.388 57.760,8.000 56.000,8.000 Z" class="cls-2"/>
    <rect x="10" y="10" width="60" height="60" rx="12" ry="12" class="cls-3"/>
    <path d="M44.715,38.122 C44.715,34.571 43.093,31.408 40.567,29.369 C38.040,31.408 36.418,34.571 36.418,38.122 C36.418,41.673 38.040,44.836 40.567,46.874 C43.093,44.836 44.715,41.673 44.715,38.122 Z" class="cls-4"/>
    <path d="M36.605,38.057 C36.605,34.530 38.249,31.388 40.808,29.363 C38.936,27.882 36.575,26.998 34.007,26.998 C27.930,26.998 23.004,31.950 23.004,38.057 C23.004,44.165 27.930,49.116 34.007,49.116 C36.575,49.116 38.936,48.232 40.808,46.751 C38.249,44.727 36.605,41.585 36.605,38.057 Z" class="cls-5"/>
    <path d="M57.997,38.057 C57.997,44.165 53.070,49.116 46.993,49.116 C44.426,49.116 42.064,48.232 40.192,46.751 C42.751,44.727 44.395,41.585 44.395,38.057 C44.395,34.530 42.751,31.388 40.192,29.363 C42.064,27.882 44.426,26.998 46.993,26.998 C53.070,26.998 57.997,31.950 57.997,38.057 Z" class="cls-6"/>
    <path d="M29.203,55.922 L29.203,54.037 C29.203,53.326 28.761,52.849 28.048,52.843 C27.673,52.836 27.285,52.955 27.015,53.377 C26.812,53.044 26.493,52.843 26.044,52.843 C25.730,52.843 25.423,52.937 25.183,53.288 L25.183,52.918 L24.544,52.918 L24.544,55.922 L25.189,55.922 L25.189,54.257 C25.189,53.735 25.472,53.458 25.909,53.458 C26.333,53.458 26.548,53.741 26.548,54.250 L26.548,55.922 L27.193,55.922 L27.193,54.257 C27.193,53.735 27.488,53.458 27.913,53.458 C28.349,53.458 28.558,53.741 28.558,54.250 L28.558,55.922 L29.203,55.922 ZM38.755,52.918 L37.710,52.918 L37.710,52.007 L37.065,52.007 L37.065,52.918 L36.469,52.918 L36.469,53.515 L37.065,53.515 L37.065,54.885 C37.065,55.582 37.329,55.997 38.085,55.997 C38.362,55.997 38.681,55.909 38.884,55.765 L38.700,55.205 C38.509,55.318 38.300,55.375 38.134,55.375 C37.815,55.375 37.710,55.174 37.710,54.873 L37.710,53.515 L38.755,53.515 L38.755,52.918 ZM44.207,52.843 C43.839,52.843 43.599,53.018 43.433,53.282 L43.433,52.918 L42.800,52.918 L42.800,55.922 L43.439,55.922 L43.439,54.238 C43.439,53.741 43.648,53.465 44.066,53.465 C44.195,53.465 44.330,53.483 44.465,53.540 L44.662,52.924 C44.521,52.867 44.336,52.843 44.207,52.843 L44.207,52.843 ZM35.965,53.157 C35.657,52.949 35.233,52.843 34.766,52.843 C34.022,52.843 33.543,53.207 33.543,53.804 C33.543,54.294 33.899,54.596 34.557,54.690 L34.858,54.734 C35.209,54.784 35.375,54.879 35.375,55.048 C35.375,55.281 35.141,55.413 34.705,55.413 C34.262,55.413 33.942,55.268 33.727,55.099 L33.426,55.608 C33.776,55.872 34.219,55.997 34.698,55.997 C35.547,55.997 36.038,55.589 36.038,55.017 C36.038,54.489 35.651,54.212 35.012,54.118 L34.711,54.074 C34.434,54.037 34.213,53.980 34.213,53.779 C34.213,53.559 34.422,53.427 34.772,53.427 C35.147,53.427 35.510,53.572 35.688,53.685 L35.965,53.157 ZM53.089,52.843 C52.720,52.843 52.481,53.018 52.315,53.282 L52.315,52.918 L51.682,52.918 L51.682,55.922 L52.321,55.922 L52.321,54.238 C52.321,53.741 52.530,53.465 52.948,53.465 C53.077,53.465 53.212,53.483 53.347,53.540 L53.544,52.924 C53.403,52.867 53.218,52.843 53.089,52.843 L53.089,52.843 ZM44.853,54.420 C44.853,55.331 45.474,55.997 46.420,55.997 C46.863,55.997 47.158,55.897 47.477,55.639 L47.170,55.111 C46.930,55.287 46.678,55.381 46.402,55.381 C45.892,55.375 45.517,54.998 45.517,54.420 C45.517,53.842 45.892,53.465 46.402,53.458 C46.678,53.458 46.930,53.552 47.170,53.729 L47.477,53.201 C47.158,52.943 46.863,52.843 46.420,52.843 C45.474,52.843 44.853,53.509 44.853,54.420 L44.853,54.420 ZM50.840,54.420 L50.840,52.918 L50.200,52.918 L50.200,53.282 C49.998,53.012 49.690,52.843 49.272,52.843 C48.448,52.843 47.803,53.502 47.803,54.420 C47.803,55.337 48.448,55.997 49.272,55.997 C49.690,55.997 49.998,55.828 50.200,55.558 L50.200,55.922 L50.840,55.922 L50.840,54.420 ZM48.461,54.420 C48.461,53.892 48.799,53.458 49.352,53.458 C49.881,53.458 50.237,53.873 50.237,54.420 C50.237,54.967 49.881,55.381 49.352,55.381 C48.799,55.381 48.461,54.948 48.461,54.420 L48.461,54.420 ZM40.747,52.843 C39.886,52.843 39.284,53.483 39.284,54.420 C39.284,55.375 39.911,55.997 40.790,55.997 C41.232,55.997 41.638,55.884 41.995,55.576 L41.681,55.092 C41.435,55.294 41.122,55.407 40.827,55.407 C40.415,55.407 40.040,55.212 39.948,54.671 L42.130,54.671 C42.136,54.589 42.142,54.508 42.142,54.420 C42.136,53.483 41.570,52.843 40.747,52.843 L40.747,52.843 ZM40.734,53.427 C41.146,53.427 41.411,53.691 41.478,54.156 L39.954,54.156 C40.022,53.722 40.280,53.427 40.734,53.427 L40.734,53.427 ZM56.771,54.420 L56.771,51.711 L56.132,51.711 L56.132,53.282 C55.929,53.012 55.622,52.843 55.204,52.843 C54.380,52.843 53.735,53.502 53.735,54.420 C53.735,55.337 54.380,55.997 55.204,55.997 C55.622,55.997 55.929,55.828 56.132,55.558 L56.132,55.922 L56.771,55.922 L56.771,54.420 ZM54.392,54.420 C54.392,53.892 54.730,53.458 55.284,53.458 C55.812,53.458 56.169,53.873 56.169,54.420 C56.169,54.967 55.812,55.381 55.284,55.381 C54.730,55.381 54.392,54.948 54.392,54.420 L54.392,54.420 ZM32.805,54.420 L32.805,52.918 L32.166,52.918 L32.166,53.282 C31.963,53.012 31.656,52.843 31.238,52.843 C30.414,52.843 29.769,53.502 29.769,54.420 C29.769,55.337 30.414,55.997 31.238,55.997 C31.656,55.997 31.963,55.828 32.166,55.558 L32.166,55.922 L32.805,55.922 L32.805,54.420 ZM30.426,54.420 C30.426,53.892 30.764,53.458 31.318,53.458 C31.846,53.458 32.203,53.873 32.203,54.420 C32.203,54.967 31.846,55.381 31.318,55.381 C30.764,55.381 30.426,54.948 30.426,54.420 Z" class="cls-7"/>
  </g>
</svg>
