<svg xmlns="http://www.w3.org/2000/svg" xmlns:xlink="http://www.w3.org/1999/xlink" preserveAspectRatio="xMidYMid" width="74" height="73" viewBox="0 0 74 73">
  <defs>
    <style>
      .cls-1 {
        fill: #ededed;
      }

      .cls-1, .cls-3, .cls-4 {
        fill-rule: evenodd;
      }

      .cls-2 {
        fill: #ca2027;
        stroke: #a61016;
        stroke-width: 2px;
      }

      .cls-3 {
        fill: #b41e25;
      }

      .cls-4 {
        fill: #fff;
      }
    </style>
  </defs>
  <g>
    <path d="M-0.000,42.000 L72.000,42.000 L72.000,60.000 C72.000,66.627 66.627,72.000 60.000,72.000 L12.000,72.000 C5.373,72.000 -0.000,66.627 -0.000,60.000 L-0.000,42.000 Z" class="cls-1"/>
    <rect x="1" y="1" width="72" height="64" rx="12" ry="12" class="cls-2"/>
    <path d="M41.393,23.282 C34.077,23.282 30.388,28.469 30.388,32.795 C30.388,35.415 31.391,37.745 33.542,38.614 C33.894,38.756 34.210,38.619 34.312,38.233 C34.383,37.965 34.552,37.291 34.627,37.011 C34.730,36.628 34.690,36.494 34.406,36.161 C33.785,35.438 33.389,34.502 33.389,33.175 C33.389,29.326 36.301,25.881 40.970,25.881 C45.106,25.881 47.378,28.380 47.378,31.717 C47.378,36.108 45.413,39.814 42.496,39.814 C40.885,39.814 39.679,38.497 40.065,36.881 C40.528,34.952 41.425,32.870 41.425,31.477 C41.425,30.230 40.748,29.190 39.348,29.190 C37.701,29.190 36.378,30.875 36.378,33.132 C36.378,34.570 36.869,35.542 36.869,35.542 C36.869,35.542 35.184,42.604 34.889,43.841 C34.300,46.304 34.800,49.323 34.842,49.628 C34.867,49.809 35.102,49.852 35.209,49.716 C35.360,49.520 37.322,47.125 37.988,44.732 C38.177,44.054 39.072,40.545 39.072,40.545 C39.607,41.555 41.171,42.444 42.833,42.444 C47.783,42.444 51.142,37.980 51.142,32.006 C51.142,27.489 47.273,23.282 41.393,23.282 Z" class="cls-3"/>
    <path d="M38.005,19.893 C30.688,19.893 26.999,25.081 26.999,29.407 C26.999,32.026 28.002,34.356 30.153,35.225 C30.506,35.367 30.821,35.230 30.924,34.844 C30.995,34.576 31.163,33.902 31.238,33.622 C31.341,33.240 31.301,33.106 31.017,32.773 C30.397,32.049 30.000,31.113 30.000,29.786 C30.000,25.937 32.912,22.492 37.582,22.492 C41.717,22.492 43.989,24.991 43.989,28.329 C43.989,32.719 42.024,36.425 39.107,36.425 C37.496,36.425 36.290,35.108 36.677,33.492 C37.140,31.563 38.036,29.480 38.036,28.088 C38.036,26.841 37.360,25.802 35.959,25.802 C34.313,25.802 32.990,27.487 32.990,29.744 C32.990,31.181 33.481,32.153 33.481,32.153 C33.481,32.153 31.796,39.216 31.500,40.452 C30.912,42.915 31.412,45.935 31.454,46.240 C31.479,46.420 31.714,46.463 31.820,46.327 C31.972,46.131 33.933,43.735 34.600,41.343 C34.789,40.665 35.683,37.156 35.683,37.156 C36.218,38.166 37.782,39.055 39.445,39.055 C44.395,39.055 47.753,34.592 47.753,28.618 C47.753,24.100 43.885,19.893 38.005,19.893 Z" class="cls-4"/>
  </g>
</svg>
