<svg xmlns="http://www.w3.org/2000/svg" xmlns:xlink="http://www.w3.org/1999/xlink" preserveAspectRatio="xMidYMid" width="72" height="72" viewBox="0 0 72 72">
  <defs>
    <style>
      .cls-1, .cls-4 {
        fill: #c4e0ff;
      }

      .cls-2 {
        fill: #a1c0e3;
      }

      .cls-3, .cls-6 {
        fill: #fff;
      }

      .cls-3, .cls-4, .cls-5 {
        fill-rule: evenodd;
      }

      .cls-5 {
        fill: #6ca2df;
      }
    </style>
  </defs>
  <g>
    <rect width="72" height="72" rx="12" ry="12" class="cls-1"/>
    <rect x="16" y="16" width="48" height="48" rx="5" ry="5" class="cls-2"/>
    <path d="M11.000,21.000 L59.000,21.000 L59.000,54.000 C59.000,56.761 56.761,59.000 54.000,59.000 L16.000,59.000 C13.239,59.000 11.000,56.761 11.000,54.000 L11.000,21.000 Z" class="cls-3"/>
    <path d="M40.829,28.996 L29.200,28.996 C26.342,28.996 24.002,31.336 24.002,34.194 L24.002,45.824 C24.002,46.661 24.691,47.351 25.529,47.351 C26.367,47.351 27.057,46.661 27.057,45.824 L27.057,34.194 C27.057,33.012 28.017,32.051 29.200,32.051 L40.829,32.051 C42.011,32.051 42.972,33.012 42.972,34.194 L42.972,45.824 C42.972,47.006 42.011,47.967 40.829,47.967 L32.009,47.967 L36.764,40.551 L36.862,41.167 C36.985,41.931 37.626,42.473 38.365,42.473 C38.439,42.473 38.513,42.473 38.587,42.448 C39.424,42.325 39.991,41.536 39.868,40.699 L39.203,36.264 C39.080,35.426 38.316,34.860 37.453,34.983 L32.477,35.722 C31.639,35.845 31.073,36.634 31.196,37.471 C31.319,38.309 32.107,38.875 32.945,38.752 L34.398,38.530 L27.894,48.657 C27.599,49.125 27.574,49.716 27.845,50.209 C28.116,50.702 28.633,50.997 29.175,50.997 L40.804,50.997 C43.662,50.997 46.002,48.657 46.002,45.799 L46.002,34.170 C46.027,31.336 43.686,28.996 40.829,28.996 Z" class="cls-4"/>
    <path d="M16.000,11.000 L54.000,11.000 C56.761,11.000 59.000,13.239 59.000,16.000 L59.000,21.000 L11.000,21.000 L11.000,16.000 C11.000,13.239 13.239,11.000 16.000,11.000 Z" class="cls-5"/>
    <circle cx="26" cy="16" r="2" class="cls-6"/>
    <circle cx="21" cy="16" r="2" class="cls-6"/>
    <circle cx="16" cy="16" r="2" class="cls-6"/>
  </g>
</svg>
