<svg xmlns="http://www.w3.org/2000/svg" xmlns:xlink="http://www.w3.org/1999/xlink" preserveAspectRatio="xMidYMid" width="72" height="72" viewBox="0 0 72 72">
  <defs>
    <style>
      .cls-1 {
        fill: #e3effd;
      }

      .cls-2 {
        fill: #fff;
      }

      .cls-2, .cls-3, .cls-6, .cls-8 {
        fill-rule: evenodd;
      }

      .cls-3 {
        fill: #3480d4;
      }

      .cls-4 {
        fill: #2f76c5;
      }

      .cls-5 {
        fill: #f6f6f6;
      }

      .cls-6 {
        fill: #4792e5;
      }

      .cls-7 {
        fill: #4288d6;
      }

      .cls-8 {
        fill: #226cbf;
      }
    </style>
  </defs>
  <g>
    <rect width="72" height="72" rx="12" ry="12" class="cls-1"/>
    <g>
      <path d="M48.000,25.000 L63.000,25.000 L63.000,51.000 C63.000,52.105 62.105,53.000 61.000,53.000 L48.000,53.000 L48.000,25.000 Z" class="cls-2"/>
      <path d="M48.000,19.000 L61.000,19.000 C62.105,19.000 63.000,19.895 63.000,21.000 L63.000,25.000 L48.000,25.000 L48.000,19.000 Z" class="cls-3"/>
      <rect x="48" y="19" width="2" height="6" class="cls-4"/>
      <rect x="48" y="25" width="2" height="28" class="cls-5"/>
    </g>
    <g>
      <path d="M9.000,25.000 L24.000,25.000 L24.000,53.000 L11.000,53.000 C9.895,53.000 9.000,52.105 9.000,51.000 L9.000,25.000 Z" class="cls-2"/>
      <path d="M11.000,19.000 L24.000,19.000 L24.000,25.000 L9.000,25.000 L9.000,21.000 C9.000,19.895 9.895,19.000 11.000,19.000 Z" class="cls-6"/>
      <rect x="22" y="19" width="2" height="6" class="cls-7"/>
      <rect x="22" y="25" width="2" height="28" class="cls-5"/>
    </g>
    <g>
      <path d="M24.000,21.000 L48.000,21.000 L48.000,55.000 C48.000,56.105 47.105,57.000 46.000,57.000 L26.000,57.000 C24.895,57.000 24.000,56.105 24.000,55.000 L24.000,21.000 Z" class="cls-2"/>
      <path d="M26.000,15.000 L46.000,15.000 C47.105,15.000 48.000,15.895 48.000,17.000 L48.000,21.000 L24.000,21.000 L24.000,17.000 C24.000,15.895 24.895,15.000 26.000,15.000 Z" class="cls-8"/>
    </g>
  </g>
</svg>
