<svg xmlns="http://www.w3.org/2000/svg" xmlns:xlink="http://www.w3.org/1999/xlink" preserveAspectRatio="xMidYMid" width="72" height="72" viewBox="0 0 72 72">
  <defs>
    <style>
      .cls-1 {
        fill: #ededed;
      }

      .cls-2 {
        fill: #dfdfdf;
      }

      .cls-2, .cls-3 {
        fill-rule: evenodd;
      }

      .cls-3 {
        fill: #3581d7;
      }

      .cls-4 {
        fill: #4196f6;
      }
    </style>
  </defs>
  <g>
    <rect width="72" height="72" rx="12" ry="12" class="cls-1"/>
    <path d="M54.000,48.000 L54.000,34.000 L64.000,34.000 L64.000,48.000 L54.000,48.000 ZM30.000,26.000 L52.000,26.000 L52.000,52.000 L30.000,52.000 L30.000,26.000 ZM18.000,34.000 L28.000,34.000 L28.000,48.000 L18.000,48.000 L18.000,34.000 Z" class="cls-2"/>
    <path d="M50.000,44.000 L50.000,30.000 L60.000,30.000 L60.000,44.000 L50.000,44.000 ZM14.000,30.000 L24.000,30.000 L24.000,44.000 L14.000,44.000 L14.000,30.000 Z" class="cls-3"/>
    <rect x="26" y="22" width="22" height="26" class="cls-4"/>
  </g>
</svg>
