<svg xmlns="http://www.w3.org/2000/svg" xmlns:xlink="http://www.w3.org/1999/xlink" preserveAspectRatio="xMidYMid" width="72" height="72" viewBox="0 0 72 72">
  <defs>
    <style>
      .cls-1 {
        fill: #dde7ec;
      }

      .cls-2 {
        fill: #cdd8de;
      }

      .cls-2, .cls-3, .cls-4, .cls-5 {
        fill-rule: evenodd;
      }

      .cls-3 {
        fill: #78909c;
      }

      .cls-4 {
        fill: #435b67;
      }

      .cls-5 {
        fill: #00bea4;
      }
    </style>
  </defs>
  <g>
    <rect width="72" height="72" rx="12" ry="12" class="cls-1"/>
    <g>
      <path d="M32.877,17.510 C32.877,17.510 26.258,20.309 24.853,21.184 C23.447,22.059 18.293,27.015 18.000,27.190 C18.000,27.190 19.874,32.030 23.037,34.771 C23.037,34.771 25.028,33.429 26.082,32.730 C26.082,32.730 25.907,37.395 25.965,40.193 C26.024,42.993 26.325,56.606 26.325,58.647 C26.325,58.647 41.698,59.636 50.425,58.295 C50.425,58.295 51.503,47.308 51.210,42.934 C50.917,38.561 51.340,32.904 51.340,32.904 C51.340,32.904 54.490,34.829 54.724,34.887 C54.958,34.946 59.000,26.665 59.000,26.665 C59.000,26.665 52.908,20.251 52.205,19.726 C51.503,19.201 45.235,17.044 45.235,17.044 C45.235,17.044 42.717,19.026 39.320,19.143 C35.923,19.260 34.165,17.044 34.165,17.044 L32.877,17.510 Z" class="cls-2"/>
      <path d="M30.877,15.511 C30.877,15.511 24.258,18.309 22.853,19.184 C21.447,20.059 16.293,25.015 16.000,25.190 C16.000,25.190 17.874,30.030 21.037,32.771 C21.037,32.771 23.028,31.430 24.083,30.729 C24.083,30.729 23.907,35.395 23.965,38.194 C24.024,40.993 24.325,54.605 24.325,56.647 C24.325,56.647 39.698,57.636 48.425,56.294 C48.425,56.294 49.502,45.308 49.210,40.934 C48.917,36.561 49.340,30.905 49.340,30.905 C49.340,30.905 52.490,32.829 52.724,32.887 C52.958,32.946 57.000,24.665 57.000,24.665 C57.000,24.665 50.908,18.251 50.205,17.726 C49.502,17.201 43.235,15.044 43.235,15.044 C43.235,15.044 40.717,17.026 37.320,17.143 C33.923,17.259 32.165,15.044 32.165,15.044 L30.877,15.511 Z" class="cls-3"/>
      <path d="M51.370,28.869 C51.316,28.935 51.238,29.028 51.143,29.133 C51.096,29.186 51.044,29.243 50.989,29.302 C50.934,29.361 50.877,29.424 50.815,29.486 C50.755,29.550 50.694,29.616 50.629,29.681 C50.563,29.745 50.500,29.813 50.435,29.880 C50.370,29.946 50.304,30.012 50.241,30.078 C50.175,30.142 50.112,30.207 50.051,30.270 C49.992,30.334 49.927,30.391 49.871,30.449 C49.816,30.507 49.758,30.559 49.708,30.609 C49.505,30.807 49.352,30.934 49.352,30.934 C49.352,30.934 49.409,30.744 49.551,30.490 C49.586,30.427 49.624,30.358 49.670,30.289 C49.716,30.220 49.763,30.145 49.818,30.073 C49.873,30.001 49.930,29.927 49.990,29.853 C50.052,29.781 50.118,29.710 50.183,29.639 C50.252,29.571 50.320,29.502 50.390,29.438 C50.458,29.371 50.532,29.313 50.603,29.256 C50.673,29.199 50.743,29.146 50.813,29.101 C50.881,29.052 50.948,29.010 51.012,28.974 C51.136,28.898 51.247,28.846 51.326,28.812 C51.406,28.780 51.452,28.763 51.452,28.763 C51.452,28.763 51.422,28.801 51.370,28.869 ZM50.200,21.165 C50.181,21.456 50.160,21.772 50.139,22.106 C50.117,22.440 50.093,22.792 50.063,23.155 C50.035,23.519 50.006,23.895 49.976,24.277 C49.945,24.659 49.913,25.046 49.881,25.434 C49.847,25.822 49.813,26.210 49.780,26.591 C49.745,26.973 49.710,27.348 49.677,27.712 C49.646,28.075 49.606,28.426 49.575,28.759 C49.541,29.092 49.509,29.407 49.479,29.697 C49.399,30.463 49.330,31.032 49.290,31.351 C49.309,31.323 49.384,31.222 49.532,31.089 C49.575,31.051 49.621,31.009 49.673,30.970 C49.725,30.931 49.779,30.887 49.840,30.850 C49.900,30.812 49.962,30.773 50.026,30.735 C50.091,30.699 50.159,30.665 50.227,30.630 C50.296,30.600 50.365,30.569 50.435,30.542 C50.503,30.512 50.574,30.492 50.642,30.471 C50.710,30.450 50.777,30.432 50.841,30.420 C50.905,30.405 50.966,30.395 51.023,30.388 C51.137,30.371 51.234,30.369 51.302,30.370 C51.371,30.374 51.410,30.376 51.410,30.376 C51.410,30.376 51.378,30.399 51.323,30.439 C51.267,30.476 51.187,30.528 51.090,30.583 C51.042,30.611 50.989,30.641 50.933,30.670 C50.878,30.700 50.820,30.733 50.758,30.761 C50.698,30.792 50.635,30.825 50.570,30.854 C50.505,30.882 50.440,30.914 50.375,30.945 C50.309,30.975 50.243,31.004 50.178,31.034 C50.113,31.062 50.048,31.090 49.985,31.117 C49.924,31.146 49.860,31.166 49.802,31.192 C49.745,31.217 49.687,31.235 49.635,31.256 C49.442,31.329 49.307,31.363 49.287,31.368 C49.268,31.523 49.254,31.633 49.254,31.633 C49.254,31.633 49.243,30.853 49.282,29.684 C49.292,29.392 49.302,29.075 49.318,28.741 C49.335,28.407 49.349,28.053 49.372,27.689 C49.395,27.324 49.419,26.947 49.443,26.565 C49.472,26.182 49.502,25.794 49.532,25.405 C49.567,25.018 49.601,24.630 49.636,24.248 C49.669,23.865 49.711,23.490 49.750,23.127 C49.789,22.764 49.830,22.413 49.872,22.081 C49.912,21.748 49.953,21.434 49.994,21.144 C50.072,20.565 50.149,20.083 50.204,19.747 C50.262,19.410 50.296,19.218 50.296,19.218 C50.296,19.218 50.288,19.413 50.276,19.754 C50.260,20.095 50.237,20.581 50.200,21.165 ZM48.031,42.547 C47.980,42.741 47.926,42.945 47.863,43.154 C47.799,43.363 47.732,43.579 47.665,43.798 C47.591,44.015 47.515,44.235 47.440,44.456 C47.358,44.674 47.276,44.892 47.195,45.107 C47.114,45.322 47.024,45.529 46.940,45.731 C46.854,45.931 46.769,46.125 46.682,46.306 C46.598,46.487 46.516,46.658 46.436,46.814 C46.281,47.127 46.138,47.382 46.037,47.560 C45.932,47.736 45.872,47.836 45.872,47.836 C45.872,47.836 45.908,47.725 45.971,47.531 C46.036,47.337 46.129,47.061 46.246,46.734 C46.304,46.570 46.367,46.392 46.434,46.205 C46.502,46.017 46.571,45.819 46.647,45.616 C46.721,45.412 46.797,45.202 46.875,44.987 C46.953,44.774 47.032,44.556 47.111,44.339 C47.189,44.121 47.268,43.904 47.345,43.689 C47.422,43.476 47.499,43.265 47.573,43.061 C47.642,42.855 47.720,42.660 47.785,42.472 C47.853,42.285 47.918,42.108 47.977,41.944 C48.214,41.289 48.388,40.855 48.388,40.855 C48.388,40.855 48.325,41.319 48.166,41.999 C48.127,42.170 48.083,42.354 48.031,42.547 ZM46.977,40.750 C46.889,40.890 46.793,41.041 46.691,41.202 C46.588,41.362 46.479,41.534 46.364,41.714 C46.245,41.893 46.117,42.078 45.984,42.272 C45.850,42.464 45.715,42.669 45.567,42.875 C45.416,43.079 45.261,43.290 45.102,43.507 C45.021,43.615 44.940,43.725 44.857,43.836 C44.772,43.945 44.686,44.056 44.599,44.167 C44.424,44.389 44.248,44.619 44.061,44.846 C43.682,45.296 43.297,45.768 42.882,46.226 C42.474,46.691 42.035,47.140 41.604,47.597 C41.156,48.037 40.715,48.485 40.258,48.902 C39.811,49.330 39.346,49.723 38.902,50.110 C38.678,50.301 38.452,50.483 38.233,50.663 C38.123,50.752 38.014,50.841 37.907,50.928 C37.798,51.015 37.689,51.096 37.582,51.179 C37.367,51.343 37.159,51.502 36.957,51.657 C36.754,51.810 36.552,51.949 36.361,52.086 C36.169,52.223 35.986,52.355 35.810,52.477 C35.631,52.596 35.461,52.708 35.302,52.814 C35.142,52.920 34.993,53.018 34.854,53.109 C34.716,53.199 34.585,53.277 34.468,53.349 C33.999,53.634 33.731,53.797 33.731,53.797 C33.731,53.797 33.984,53.612 34.428,53.290 C34.538,53.209 34.663,53.123 34.795,53.024 C34.927,52.924 35.069,52.817 35.221,52.702 C35.374,52.587 35.536,52.466 35.707,52.337 C35.875,52.205 36.052,52.067 36.236,51.922 C36.419,51.776 36.614,51.628 36.809,51.468 C37.005,51.308 37.206,51.142 37.413,50.972 C37.517,50.886 37.621,50.799 37.728,50.711 C37.832,50.622 37.937,50.530 38.043,50.438 C38.257,50.254 38.474,50.066 38.696,49.875 C39.128,49.481 39.581,49.080 40.023,48.655 C40.475,48.239 40.910,47.793 41.353,47.354 C41.784,46.903 42.223,46.460 42.630,46.001 C43.051,45.554 43.441,45.093 43.826,44.652 C44.013,44.428 44.197,44.207 44.377,43.991 C44.467,43.883 44.556,43.776 44.645,43.671 C44.732,43.564 44.814,43.456 44.898,43.351 C45.064,43.141 45.226,42.936 45.382,42.739 C45.539,42.541 45.682,42.344 45.824,42.158 C45.965,41.971 46.100,41.791 46.228,41.621 C46.353,41.447 46.471,41.283 46.582,41.129 C46.694,40.974 46.798,40.830 46.895,40.697 C46.991,40.563 47.074,40.437 47.152,40.324 C47.465,39.875 47.643,39.618 47.643,39.618 C47.643,39.618 47.485,39.888 47.209,40.361 C47.139,40.478 47.064,40.610 46.977,40.750 ZM43.541,19.144 C43.318,19.589 43.039,20.057 42.687,20.513 C42.337,20.970 41.910,21.414 41.398,21.790 C40.888,22.168 40.297,22.478 39.656,22.673 C39.016,22.870 38.335,22.957 37.659,22.949 C36.983,22.939 36.307,22.843 35.669,22.646 C35.031,22.447 34.437,22.147 33.922,21.779 C33.405,21.411 32.970,20.974 32.614,20.522 C32.256,20.070 31.978,19.601 31.754,19.156 C31.308,18.262 31.086,17.459 30.962,16.897 C30.839,16.333 30.815,16.003 30.815,16.003 C30.815,16.003 30.868,16.329 31.027,16.880 C31.188,17.430 31.456,18.209 31.929,19.065 C32.165,19.492 32.458,19.933 32.814,20.360 C33.169,20.789 33.603,21.188 34.098,21.530 C34.594,21.872 35.161,22.146 35.767,22.325 C36.373,22.507 37.018,22.596 37.663,22.601 C38.308,22.611 38.952,22.532 39.556,22.348 C40.159,22.166 40.721,21.887 41.212,21.538 C41.703,21.189 42.124,20.777 42.477,20.347 C42.830,19.917 43.118,19.473 43.358,19.048 C43.833,18.193 44.116,17.420 44.290,16.874 C44.465,16.327 44.527,16.003 44.527,16.003 C44.527,16.003 44.491,16.331 44.359,16.893 C44.223,17.453 43.989,18.251 43.541,19.144 ZM27.485,46.443 C27.417,46.344 27.344,46.239 27.267,46.129 C27.193,46.016 27.119,45.896 27.040,45.771 C26.962,45.645 26.877,45.517 26.797,45.378 C26.718,45.240 26.637,45.096 26.553,44.949 C26.467,44.802 26.387,44.648 26.307,44.489 C26.226,44.331 26.142,44.169 26.062,44.002 C25.909,43.665 25.742,43.321 25.604,42.958 C25.453,42.599 25.327,42.225 25.191,41.854 C25.076,41.476 24.952,41.101 24.856,40.725 C24.752,40.351 24.676,39.976 24.595,39.615 C24.557,39.435 24.528,39.255 24.497,39.080 C24.466,38.905 24.438,38.733 24.417,38.565 C24.395,38.397 24.373,38.234 24.352,38.076 C24.333,37.918 24.324,37.765 24.309,37.618 C24.297,37.471 24.283,37.330 24.274,37.196 C24.269,37.062 24.263,36.934 24.258,36.815 C24.248,36.576 24.242,36.367 24.246,36.195 C24.251,35.852 24.254,35.656 24.254,35.656 C24.254,35.656 24.276,35.851 24.314,36.191 C24.329,36.362 24.356,36.567 24.389,36.804 C24.405,36.922 24.421,37.047 24.438,37.179 C24.460,37.311 24.482,37.450 24.505,37.594 C24.529,37.738 24.550,37.889 24.579,38.044 C24.609,38.198 24.639,38.358 24.671,38.523 C24.699,38.688 24.736,38.855 24.776,39.026 C24.814,39.197 24.853,39.372 24.893,39.550 C24.984,39.904 25.069,40.270 25.182,40.636 C25.280,41.006 25.406,41.373 25.524,41.744 C25.654,42.110 25.776,42.479 25.921,42.833 C26.057,43.191 26.208,43.536 26.348,43.873 C26.424,44.038 26.499,44.202 26.572,44.361 C26.644,44.521 26.715,44.678 26.791,44.827 C26.865,44.977 26.938,45.123 27.008,45.264 C27.078,45.405 27.152,45.538 27.219,45.668 C27.288,45.797 27.354,45.922 27.416,46.040 C27.482,46.156 27.544,46.266 27.603,46.369 C27.719,46.578 27.821,46.760 27.911,46.905 C28.085,47.201 28.185,47.371 28.185,47.371 C28.185,47.371 28.064,47.216 27.851,46.945 C27.744,46.810 27.622,46.640 27.485,46.443 ZM24.053,31.457 C24.053,31.457 24.040,31.297 24.015,31.018 C23.993,30.739 23.961,30.341 23.923,29.864 C23.902,29.625 23.881,29.368 23.858,29.095 C23.838,28.821 23.803,28.535 23.780,28.237 C23.751,27.940 23.723,27.633 23.687,27.322 C23.658,27.010 23.620,26.694 23.585,26.377 C23.548,26.061 23.514,25.745 23.471,25.435 C23.431,25.124 23.392,24.818 23.354,24.522 C23.313,24.226 23.274,23.940 23.236,23.669 C23.198,23.398 23.161,23.142 23.128,22.905 C23.059,22.431 23.002,22.036 22.962,21.758 C22.924,21.481 22.903,21.322 22.903,21.322 C22.903,21.322 22.950,21.475 23.033,21.744 C23.112,22.012 23.221,22.398 23.331,22.866 C23.389,23.099 23.445,23.354 23.500,23.624 C23.559,23.893 23.611,24.179 23.664,24.474 C23.714,24.771 23.769,25.077 23.810,25.389 C23.855,25.702 23.893,26.020 23.933,26.338 C23.964,26.658 23.999,26.976 24.024,27.291 C24.049,27.605 24.066,27.916 24.085,28.215 C24.100,28.515 24.109,28.806 24.115,29.081 C24.122,29.356 24.122,29.616 24.119,29.857 C24.117,30.337 24.100,30.738 24.083,31.017 C24.064,31.297 24.053,31.457 24.053,31.457 ZM23.093,28.354 C23.152,28.448 23.208,28.550 23.264,28.657 C23.319,28.764 23.377,28.874 23.427,28.990 C23.479,29.105 23.527,29.224 23.577,29.342 C23.621,29.463 23.666,29.583 23.706,29.703 C23.745,29.823 23.778,29.943 23.812,30.058 C23.845,30.174 23.870,30.288 23.893,30.395 C23.918,30.502 23.935,30.606 23.950,30.701 C24.013,31.081 24.010,31.340 24.010,31.340 C24.010,31.340 23.983,31.280 23.943,31.190 C23.928,31.180 23.914,31.170 23.867,31.133 C23.802,31.082 23.712,31.010 23.606,30.925 C23.553,30.882 23.496,30.836 23.436,30.788 C23.378,30.737 23.309,30.692 23.247,30.637 C23.182,30.585 23.115,30.531 23.044,30.480 C22.977,30.424 22.905,30.373 22.834,30.320 C22.764,30.266 22.694,30.212 22.622,30.163 C22.551,30.112 22.482,30.061 22.415,30.013 C22.345,29.967 22.281,29.917 22.218,29.873 C22.155,29.828 22.095,29.786 22.040,29.746 C21.929,29.668 21.836,29.599 21.770,29.550 C21.705,29.498 21.667,29.469 21.667,29.469 C21.667,29.469 21.715,29.475 21.798,29.484 C21.880,29.496 21.997,29.518 22.132,29.562 C22.200,29.581 22.272,29.608 22.347,29.639 C22.423,29.668 22.500,29.706 22.578,29.746 C22.656,29.788 22.738,29.830 22.815,29.882 C22.893,29.933 22.969,29.988 23.046,30.042 C23.119,30.102 23.193,30.161 23.262,30.223 C23.331,30.286 23.394,30.352 23.456,30.415 C23.516,30.479 23.570,30.546 23.620,30.609 C23.671,30.671 23.714,30.735 23.753,30.794 C23.798,30.861 23.819,30.909 23.849,30.965 C23.819,30.894 23.795,30.841 23.760,30.753 C23.726,30.664 23.685,30.570 23.647,30.469 C23.610,30.368 23.561,30.264 23.522,30.153 C23.479,30.043 23.436,29.930 23.388,29.817 C23.345,29.701 23.297,29.585 23.251,29.469 C23.205,29.353 23.160,29.236 23.112,29.123 C23.067,29.009 23.022,28.896 22.978,28.787 C22.932,28.679 22.892,28.572 22.853,28.471 C22.812,28.371 22.776,28.275 22.742,28.187 C22.674,28.010 22.620,27.859 22.583,27.753 C22.548,27.646 22.528,27.584 22.528,27.584 C22.528,27.584 22.571,27.633 22.646,27.718 C22.718,27.805 22.819,27.931 22.926,28.092 C22.982,28.171 23.037,28.259 23.093,28.354 Z" class="cls-4"/>
      <path d="M37.189,20.280 C41.139,21.000 42.824,16.983 43.250,14.999 C42.875,15.275 40.491,16.935 37.365,17.042 C34.392,17.142 32.671,15.486 32.278,15.059 C32.614,16.634 33.707,19.646 37.189,20.280 Z" class="cls-5"/>
    </g>
  </g>
</svg>
