<svg xmlns="http://www.w3.org/2000/svg" xmlns:xlink="http://www.w3.org/1999/xlink" preserveAspectRatio="xMidYMid" width="72" height="72" viewBox="0 0 72 72">
  <defs>
    <style>
      .cls-1 {
        fill: #ededed;
      }

      .cls-2 {
        fill: #dfdfdf;
      }

      .cls-2, .cls-3 {
        fill-rule: evenodd;
      }

      .cls-3 {
        fill: #4196f6;
      }
    </style>
  </defs>
  <g>
    <rect width="72" height="72" rx="12" ry="12" class="cls-1"/>
    <path d="M46.000,52.000 L46.000,40.000 L56.000,40.000 L56.000,52.000 L46.000,52.000 ZM46.000,26.000 L56.000,26.000 L56.000,38.000 L46.000,38.000 L46.000,26.000 ZM34.000,40.000 L44.000,40.000 L44.000,52.000 L34.000,52.000 L34.000,40.000 ZM34.000,26.000 L44.000,26.000 L44.000,38.000 L34.000,38.000 L34.000,26.000 ZM22.000,40.000 L32.000,40.000 L32.000,52.000 L22.000,52.000 L22.000,40.000 ZM22.000,26.000 L32.000,26.000 L32.000,38.000 L22.000,38.000 L22.000,26.000 Z" class="cls-2"/>
    <path d="M42.000,48.000 L42.000,36.000 L52.000,36.000 L52.000,48.000 L42.000,48.000 ZM42.000,22.000 L52.000,22.000 L52.000,34.000 L42.000,34.000 L42.000,22.000 ZM30.000,36.000 L40.000,36.000 L40.000,48.000 L30.000,48.000 L30.000,36.000 ZM30.000,22.000 L40.000,22.000 L40.000,34.000 L30.000,34.000 L30.000,22.000 ZM18.000,36.000 L28.000,36.000 L28.000,48.000 L18.000,48.000 L18.000,36.000 ZM18.000,22.000 L28.000,22.000 L28.000,34.000 L18.000,34.000 L18.000,22.000 Z" class="cls-3"/>
  </g>
</svg>
