<svg xmlns="http://www.w3.org/2000/svg" xmlns:xlink="http://www.w3.org/1999/xlink" preserveAspectRatio="xMidYMid" width="72" height="72" viewBox="0 0 72 72">
  <defs>
    <style>
      .cls-1 {
        fill: #ededed;
      }

      .cls-2 {
        fill: #dfdfdf;
      }

      .cls-2, .cls-3, .cls-4, .cls-5 {
        fill-rule: evenodd;
      }

      .cls-3 {
        fill: #72b338;
      }

      .cls-4 {
        fill: #4196f6;
      }

      .cls-5 {
        fill: #f4c000;
      }
    </style>
  </defs>
  <g>
    <rect width="72" height="72" rx="12" ry="12" class="cls-1"/>
    <path d="M54.037,48.167 L39.715,39.962 L39.715,23.552 C48.761,23.830 56.034,31.221 56.034,40.265 C56.034,43.187 55.415,45.647 54.037,48.167 ZM39.169,56.989 C36.229,56.989 33.322,56.213 30.759,54.745 C28.209,53.285 26.373,51.523 24.863,49.077 L39.185,40.872 L53.504,49.077 C50.445,53.969 45.001,56.989 39.169,56.989 ZM30.759,25.784 C33.309,24.323 35.766,23.625 38.655,23.551 L38.655,39.962 L24.335,48.165 C20.055,40.252 22.869,30.306 30.759,25.784 Z" class="cls-2"/>
    <path d="M19.954,42.433 C15.796,34.915 18.530,25.466 26.196,21.171 C28.673,19.784 31.060,19.120 33.867,19.049 L33.867,34.639 L19.954,42.433 Z" class="cls-3"/>
    <path d="M37.768,34.638 L37.768,19.049 C46.405,19.314 53.348,26.335 53.348,34.926 C53.348,37.701 52.758,40.039 51.442,42.433 L37.768,34.638 Z" class="cls-4"/>
    <path d="M35.533,53.441 C32.627,53.441 29.755,52.691 27.222,51.273 C24.703,49.863 22.888,48.162 21.396,45.801 L35.548,37.878 L49.698,45.801 C46.675,50.525 41.295,53.441 35.533,53.441 Z" class="cls-5"/>
  </g>
</svg>
