<svg xmlns="http://www.w3.org/2000/svg" xmlns:xlink="http://www.w3.org/1999/xlink" preserveAspectRatio="xMidYMid" width="72" height="72" viewBox="0 0 72 72">
  <defs>
    <style>
      .cls-1 {
        fill: #e0efff;
      }

      .cls-2 {
        fill: #c1d7ee;
      }

      .cls-2, .cls-3 {
        fill-rule: evenodd;
      }

      .cls-3 {
        fill: #1b61af;
      }

      .cls-4 {
        fill: #b7d9ff;
      }
    </style>
  </defs>
  <g>
    <rect width="72" height="72" rx="12" ry="12" class="cls-1"/>
    <path d="M54.435,53.770 L53.771,54.435 C53.036,55.169 51.846,55.169 51.112,54.435 L43.260,46.583 C40.955,48.224 38.144,49.199 35.099,49.199 C27.312,49.199 21.000,42.886 21.000,35.099 C21.000,27.312 27.312,21.000 35.099,21.000 C42.886,21.000 49.199,27.312 49.199,35.099 C49.199,38.144 48.224,40.955 46.583,43.260 L54.435,51.112 C55.169,51.846 55.169,53.036 54.435,53.770 Z" class="cls-2"/>
    <path d="M52.435,51.770 L51.771,52.435 C51.036,53.169 49.846,53.169 49.112,52.435 L41.260,44.583 C38.955,46.224 36.144,47.198 33.099,47.198 C25.312,47.198 19.000,40.886 19.000,33.099 C19.000,25.312 25.312,19.000 33.099,19.000 C40.886,19.000 47.199,25.312 47.199,33.099 C47.199,36.144 46.224,38.955 44.583,41.260 L52.435,49.112 C53.169,49.846 53.169,51.036 52.435,51.770 Z" class="cls-3"/>
    <circle cx="33.094" cy="33.095" r="10.344" class="cls-4"/>
  </g>
</svg>
