<svg xmlns="http://www.w3.org/2000/svg" xmlns:xlink="http://www.w3.org/1999/xlink" preserveAspectRatio="xMidYMid" width="72" height="72" viewBox="0 0 72 72">
  <defs>
    <style>
      .cls-1 {
        fill: #e2f5ff;
      }

      .cls-2 {
        fill: #e03832;
      }

      .cls-3 {
        fill: #fff;
        fill-rule: evenodd;
      }

      .cls-4 {
        fill: #3cf;
      }

      .cls-5 {
        fill: #318bb8;
      }

      .cls-6 {
        fill: #425eac;
      }
    </style>
  </defs>
  <g>
    <rect width="72" height="72" rx="12" ry="12" class="cls-1"/>
    <circle cx="50" cy="50" r="10" class="cls-2"/>
    <path d="M54.900,50.158 L54.900,51.544 L53.937,51.544 L53.937,50.158 L52.550,50.158 L52.550,49.195 L53.937,49.195 L53.937,47.847 L54.900,47.847 L54.900,49.195 L56.248,49.195 L56.248,50.158 L54.900,50.158 ZM47.890,53.778 C45.741,53.778 44.000,52.037 44.000,49.888 C44.000,47.740 45.741,45.998 47.890,45.998 C48.898,45.998 49.816,46.382 50.507,47.011 C49.693,47.780 49.720,47.825 49.400,48.145 C49.000,47.815 48.565,47.577 47.890,47.577 C46.614,47.577 45.617,48.612 45.617,49.888 C45.617,51.164 46.614,52.199 47.890,52.199 C49.151,52.199 49.663,51.655 49.993,50.657 C49.384,50.657 47.890,50.659 47.890,50.659 L47.890,49.118 C47.890,49.118 50.866,49.118 51.626,49.118 C51.886,50.982 51.101,53.778 47.890,53.778 Z" class="cls-3"/>
    <circle cx="22" cy="50" r="10" class="cls-4"/>
    <path d="M27.767,49.688 C27.353,49.758 26.752,49.686 26.434,49.555 C27.095,49.501 27.543,49.205 27.715,48.802 C27.477,48.947 26.737,49.105 26.328,48.955 C26.308,48.860 26.286,48.770 26.263,48.688 C25.953,47.561 24.886,46.652 23.770,46.762 C23.860,46.726 23.951,46.692 24.043,46.662 C24.165,46.618 24.887,46.502 24.774,46.252 C24.677,46.031 23.796,46.418 23.630,46.469 C23.849,46.388 24.212,46.249 24.250,46.000 C23.915,46.045 23.585,46.202 23.331,46.429 C23.423,46.332 23.492,46.213 23.507,46.085 C22.612,46.649 22.089,47.787 21.666,48.891 C21.333,48.572 21.038,48.322 20.774,48.183 C20.033,47.791 19.147,47.382 17.756,46.872 C17.713,47.326 17.983,47.931 18.761,48.332 C18.593,48.310 18.284,48.360 18.038,48.417 C18.139,48.938 18.467,49.367 19.356,49.574 C18.949,49.600 18.739,49.692 18.549,49.888 C18.734,50.250 19.186,50.675 19.998,50.588 C19.094,50.972 19.629,51.683 20.364,51.577 C19.111,52.855 17.135,52.760 16.000,51.692 C18.963,55.675 25.403,54.047 26.363,50.211 C27.082,50.217 27.505,49.966 27.767,49.688 Z" class="cls-3"/>
    <circle cx="50" cy="22" r="10" class="cls-5"/>
    <path d="M52.976,26.349 L52.976,23.176 C52.976,22.380 52.693,21.836 51.984,21.836 C51.442,21.836 51.120,22.202 50.978,22.557 C50.926,22.683 50.914,22.860 50.914,23.037 L50.914,26.349 L48.954,26.349 C48.954,26.349 48.980,20.975 48.954,20.419 L50.914,20.419 L50.914,21.259 C50.909,21.266 50.905,21.273 50.900,21.279 L50.914,21.279 L50.914,21.259 C51.174,20.855 51.639,20.280 52.679,20.280 C53.969,20.280 54.936,21.127 54.936,22.949 L54.936,26.349 L52.976,26.349 ZM46.890,19.610 L46.877,19.610 C46.219,19.610 45.794,19.154 45.794,18.585 C45.794,18.003 46.232,17.561 46.903,17.561 C47.573,17.561 47.986,18.003 47.998,18.585 C47.998,19.154 47.573,19.610 46.890,19.610 ZM47.870,26.349 L45.910,26.349 L45.910,20.419 L47.870,20.419 L47.870,26.349 Z" class="cls-3"/>
    <circle cx="22" cy="22" r="10" class="cls-6"/>
    <path d="M22.483,27.426 L20.267,27.426 L20.267,21.998 L19.159,21.998 L19.159,20.127 L20.267,20.127 L20.267,19.004 C20.267,17.478 20.892,16.571 22.668,16.571 L24.148,16.571 L24.148,18.442 L23.224,18.442 C22.532,18.442 22.486,18.703 22.486,19.191 L22.483,20.127 L24.158,20.127 L23.962,21.998 L22.483,21.998 L22.483,27.426 Z" class="cls-3"/>
  </g>
</svg>
