<svg xmlns="http://www.w3.org/2000/svg" xmlns:xlink="http://www.w3.org/1999/xlink" preserveAspectRatio="xMidYMid" width="72" height="72" viewBox="0 0 72 72">
  <defs>
    <style>
      .cls-1 {
        fill: #fff9e6;
      }

      .cls-2 {
        fill: #f8e9b9;
      }

      .cls-2, .cls-3 {
        fill-rule: evenodd;
      }

      .cls-3 {
        fill: #ffcd1c;
      }
    </style>
  </defs>
  <g>
    <rect width="72" height="72" rx="12" ry="12" class="cls-1"/>
    <path d="M38.000,53.399 L27.362,58.994 L29.424,47.154 L20.809,38.761 L32.701,37.018 L38.000,26.232 L43.299,37.018 L55.191,38.761 L46.575,47.154 L48.638,58.994 L38.000,53.399 Z" class="cls-2"/>
    <path d="M36.000,51.399 L25.362,56.994 L27.424,45.154 L18.809,36.761 L30.701,35.018 L36.000,24.232 L41.299,35.018 L53.191,36.761 L44.575,45.154 L46.638,56.994 L36.000,51.399 Z" class="cls-3"/>
    <path d="M45.998,24.553 L46.238,25.998 L45.000,25.315 L43.762,25.998 L44.002,24.553 L42.999,23.529 L44.383,23.316 L45.000,22.000 L45.616,23.316 L47.000,23.529 L45.998,24.553 ZM38.666,18.997 L36.500,17.802 L34.333,18.997 L34.754,16.469 L32.999,14.677 L35.421,14.304 L36.500,12.001 L37.579,14.304 L40.000,14.677 L38.246,16.469 L38.666,18.997 ZM25.285,28.997 L22.500,27.461 L19.715,28.997 L20.255,25.746 L17.999,23.442 L21.112,22.963 L22.500,20.003 L23.887,22.963 L27.001,23.442 L24.745,25.746 L25.285,28.997 Z" class="cls-3"/>
  </g>
</svg>
