<svg xmlns="http://www.w3.org/2000/svg" xmlns:xlink="http://www.w3.org/1999/xlink" preserveAspectRatio="xMidYMid" width="72" height="72" viewBox="0 0 72 72">
  <defs>
    <style>
      .cls-1 {
        fill: #c4e0ff;
      }

      .cls-1, .cls-2, .cls-3 {
        fill-rule: evenodd;
      }

      .cls-2 {
        fill: #6ca2df;
      }

      .cls-3 {
        fill: #fff;
      }

      .cls-4 {
        fill: #4076b3;
      }
    </style>
  </defs>
  <g>
    <path d="M60.000,72.000 L12.000,72.000 C5.373,72.000 -0.000,66.627 -0.000,60.000 L-0.000,10.000 L72.000,10.000 L72.000,60.000 C72.000,66.627 66.627,72.000 60.000,72.000 ZM-0.000,5.999 C-0.000,2.686 2.686,-0.001 6.000,-0.001 L18.000,-0.001 C21.313,-0.001 24.000,2.686 24.000,5.999 L24.000,9.999 L-0.000,9.999 L-0.000,5.999 Z" class="cls-1"/>
    <path d="M56.000,-0.000 L66.000,-0.000 C69.314,-0.000 72.000,2.686 72.000,6.000 L72.000,10.000 L50.000,10.000 L50.000,6.000 C50.000,2.686 52.686,-0.000 56.000,-0.000 Z" class="cls-2"/>
    <path d="M32.000,-0.000 L42.000,-0.000 C45.314,-0.000 48.000,2.686 48.000,6.000 L48.000,10.000 L26.000,10.000 L26.000,6.000 C26.000,2.686 28.686,-0.000 32.000,-0.000 Z" class="cls-2"/>
    <path d="M20.000,42.000 L20.000,40.000 L58.000,40.000 L58.000,42.000 L20.000,42.000 ZM36.000,24.000 L52.000,24.000 L52.000,26.000 L36.000,26.000 L36.000,24.000 ZM54.000,48.000 L20.000,48.000 L20.000,46.000 L54.000,46.000 L54.000,48.000 ZM48.000,54.000 L20.000,54.000 L20.000,52.000 L48.000,52.000 L48.000,54.000 Z" class="cls-3"/>
    <rect x="20" y="20" width="10" height="10" class="cls-4"/>
  </g>
</svg>
