<svg xmlns="http://www.w3.org/2000/svg" xmlns:xlink="http://www.w3.org/1999/xlink" preserveAspectRatio="xMidYMid" width="72" height="72" viewBox="0 0 72 72">
  <defs>
    <style>
      .cls-1 {
        fill: #d2f3f1;
      }

      .cls-2 {
        fill: #68c088;
      }

      .cls-2, .cls-3, .cls-4 {
        fill-rule: evenodd;
      }

      .cls-3 {
        fill: #f2505e;
      }

      .cls-4 {
        fill: #fff;
      }
    </style>
  </defs>
  <g>
    <rect width="72" height="72" rx="12" ry="12" class="cls-1"/>
    <path d="M29.000,38.000 L45.000,38.000 L47.000,58.000 L36.571,54.000 L27.000,58.000 L29.000,38.000 Z" class="cls-2"/>
    <path d="M54.155,27.666 L52.251,29.059 L53.884,30.761 L51.767,31.802 L53.080,33.762 L50.815,34.419 L51.767,36.577 L49.422,36.831 L49.986,39.122 L47.632,38.965 L47.789,41.319 L45.498,40.755 L45.244,43.100 L43.086,42.148 L42.429,44.414 L40.469,43.100 L39.428,45.218 L37.726,43.584 L36.333,45.488 L34.941,43.584 L33.239,45.218 L32.198,43.100 L30.238,44.414 L29.580,42.148 L27.422,43.100 L27.168,40.755 L24.878,41.319 L25.035,38.965 L22.681,39.122 L23.244,36.831 L20.899,36.577 L21.852,34.419 L19.586,33.762 L20.899,31.802 L18.782,30.761 L20.415,29.059 L18.512,27.666 L20.415,26.274 L18.782,24.572 L20.899,23.531 L19.586,21.571 L21.852,20.914 L20.899,18.755 L23.244,18.502 L22.681,16.211 L25.035,16.368 L24.878,14.014 L27.168,14.578 L27.422,12.232 L29.580,13.185 L30.238,10.919 L32.198,12.232 L33.239,10.115 L34.941,11.749 L36.333,9.845 L37.726,11.749 L39.428,10.115 L40.469,12.232 L42.429,10.919 L43.086,13.185 L45.244,12.232 L45.498,14.578 L47.789,14.014 L47.632,16.368 L49.986,16.211 L49.422,18.502 L51.767,18.755 L50.815,20.914 L53.080,21.571 L51.767,23.531 L53.884,24.572 L52.251,26.274 L54.155,27.666 Z" class="cls-3"/>
    <path d="M44.218,33.802 C43.972,34.030 43.675,34.144 43.327,34.144 C42.979,34.144 42.682,34.030 42.436,33.802 C42.190,33.574 42.067,33.304 42.067,32.992 L42.067,24.244 L40.645,25.108 C40.477,25.216 40.309,25.306 40.141,25.378 C39.973,25.450 39.787,25.486 39.583,25.486 C39.307,25.486 39.046,25.408 38.800,25.252 C38.554,25.096 38.431,24.826 38.431,24.442 C38.431,24.202 38.482,23.998 38.584,23.830 C38.686,23.662 38.821,23.530 38.989,23.434 L42.553,21.346 C42.781,21.214 43.015,21.148 43.255,21.148 C43.639,21.148 43.957,21.262 44.209,21.490 C44.461,21.718 44.587,22.006 44.587,22.354 L44.587,32.992 C44.587,33.304 44.464,33.574 44.218,33.802 ZM35.533,27.286 L35.029,27.286 L34.849,27.970 L34.993,27.970 C35.305,27.970 35.590,28.081 35.848,28.303 C36.106,28.525 36.235,28.798 36.235,29.122 C36.235,29.446 36.115,29.719 35.875,29.941 C35.635,30.163 35.341,30.274 34.993,30.274 L34.309,30.274 L33.589,33.262 C33.505,33.538 33.355,33.748 33.139,33.892 C32.923,34.036 32.659,34.108 32.347,34.108 C32.035,34.084 31.774,33.967 31.564,33.757 C31.354,33.547 31.249,33.292 31.249,32.992 L31.285,32.830 L31.897,30.274 L31.069,30.274 L30.349,33.262 C30.265,33.538 30.115,33.748 29.899,33.892 C29.683,34.036 29.419,34.108 29.107,34.108 C28.819,34.084 28.564,33.967 28.342,33.757 C28.120,33.547 28.009,33.292 28.009,32.992 L28.045,32.830 L28.657,30.274 C28.321,30.250 28.042,30.130 27.820,29.914 C27.598,29.698 27.487,29.434 27.487,29.122 C27.487,28.798 27.616,28.525 27.874,28.303 C28.132,28.081 28.417,27.970 28.729,27.970 L29.197,27.970 L29.377,27.286 L29.269,27.286 C28.921,27.286 28.627,27.175 28.387,26.953 C28.147,26.731 28.027,26.458 28.027,26.134 C28.027,25.810 28.156,25.540 28.414,25.324 C28.672,25.108 28.957,25.000 29.269,25.000 L29.917,25.000 L30.637,22.048 C30.721,21.772 30.871,21.562 31.087,21.418 C31.303,21.274 31.567,21.202 31.879,21.202 C32.155,21.226 32.407,21.343 32.635,21.553 C32.863,21.763 32.971,22.012 32.959,22.300 C32.959,22.324 32.959,22.357 32.959,22.399 C32.959,22.441 32.947,22.486 32.923,22.534 L32.329,25.000 L33.157,25.000 L33.877,22.048 C33.961,21.772 34.111,21.562 34.327,21.418 C34.543,21.274 34.807,21.202 35.119,21.202 C35.431,21.226 35.695,21.346 35.911,21.562 C36.127,21.778 36.223,22.036 36.199,22.336 C36.199,22.372 36.187,22.438 36.163,22.534 L35.569,25.000 C35.881,25.012 36.160,25.126 36.406,25.342 C36.652,25.558 36.775,25.822 36.775,26.134 C36.775,26.458 36.655,26.731 36.415,26.953 C36.175,27.175 35.881,27.286 35.533,27.286 ZM31.789,27.286 L31.609,27.970 L32.437,27.970 L32.617,27.286 L31.789,27.286 Z" class="cls-4"/>
  </g>
</svg>
