<svg xmlns="http://www.w3.org/2000/svg" xmlns:xlink="http://www.w3.org/1999/xlink" preserveAspectRatio="xMidYMid" width="72" height="72" viewBox="0 0 72 72">
  <defs>
    <style>
      .cls-1 {
        fill: #ededed;
      }

      .cls-2 {
        fill: #dfdfdf;
      }

      .cls-2, .cls-3 {
        fill-rule: evenodd;
      }

      .cls-3 {
        fill: #4196f6;
      }
    </style>
  </defs>
  <g>
    <rect width="72" height="72" rx="12" ry="12" class="cls-1"/>
    <path d="M48.000,42.000 L48.000,38.000 L66.000,38.000 L66.000,42.000 L48.000,42.000 ZM41.999,53.998 L36.000,53.998 L36.000,29.999 L26.000,29.999 L26.000,23.999 L52.000,23.999 L52.000,29.999 L41.999,29.999 L41.999,53.998 ZM30.000,42.000 L10.000,42.000 L10.000,38.000 L30.000,38.000 L30.000,42.000 Z" class="cls-2"/>
    <path d="M44.000,38.000 L44.000,34.000 L62.000,34.000 L62.000,38.000 L44.000,38.000 ZM37.999,49.999 L32.000,49.999 L32.000,25.998 L21.999,25.998 L21.999,19.999 L48.000,19.999 L48.000,25.998 L37.999,25.998 L37.999,49.999 ZM26.000,38.000 L6.000,38.000 L6.000,34.000 L26.000,34.000 L26.000,38.000 Z" class="cls-3"/>
  </g>
</svg>
