<svg xmlns="http://www.w3.org/2000/svg" xmlns:xlink="http://www.w3.org/1999/xlink" preserveAspectRatio="xMidYMid" width="72" height="72" viewBox="0 0 72 72">
  <defs>
    <style>
      .cls-1 {
        fill: #c4e0ff;
      }

      .cls-1, .cls-2, .cls-3 {
        fill-rule: evenodd;
      }

      .cls-2 {
        fill: #6ca2df;
      }

      .cls-3 {
        fill: #fff;
      }

      .cls-4 {
        fill: #4076b3;
      }
    </style>
  </defs>
  <g>
    <path d="M60.000,72.000 L10.000,72.000 L10.000,-0.000 L60.000,-0.000 C66.627,-0.000 72.000,5.373 72.000,12.000 L72.000,60.000 C72.000,66.627 66.627,72.000 60.000,72.000 ZM-0.000,18.000 L-0.000,5.999 C-0.000,2.686 2.686,-0.001 6.000,-0.001 L10.000,-0.001 L10.000,23.999 L6.000,23.999 C2.686,23.999 -0.000,21.313 -0.000,18.000 Z" class="cls-1"/>
    <path d="M6.000,26.000 L10.000,26.000 L10.000,48.000 L6.000,48.000 C2.686,48.000 -0.000,45.314 -0.000,42.000 L-0.000,32.000 C-0.000,28.686 2.686,26.000 6.000,26.000 Z" class="cls-2"/>
    <path d="M6.000,50.000 L10.000,50.000 L10.000,72.000 L6.000,72.000 C2.686,72.000 -0.000,69.314 -0.000,66.000 L-0.000,56.000 C-0.000,52.686 2.686,50.000 6.000,50.000 Z" class="cls-2"/>
    <path d="M22.000,40.000 L22.000,38.000 L60.000,38.000 L60.000,40.000 L22.000,40.000 ZM38.000,22.000 L54.000,22.000 L54.000,24.000 L38.000,24.000 L38.000,22.000 ZM56.000,46.000 L22.000,46.000 L22.000,44.000 L56.000,44.000 L56.000,46.000 ZM50.000,52.000 L22.000,52.000 L22.000,50.000 L50.000,50.000 L50.000,52.000 Z" class="cls-3"/>
    <rect x="22" y="18" width="10" height="10" class="cls-4"/>
  </g>
</svg>
