<svg xmlns="http://www.w3.org/2000/svg" xmlns:xlink="http://www.w3.org/1999/xlink" preserveAspectRatio="xMidYMid" width="72" height="72" viewBox="0 0 72 72">
  <defs>
    <style>
      .cls-1 {
        fill: #fff1d4;
      }

      .cls-2 {
        fill: #f1dfb9;
      }

      .cls-2, .cls-4, .cls-5, .cls-6 {
        fill-rule: evenodd;
      }

      .cls-3 {
        fill: #ff9000;
      }

      .cls-4 {
        fill: #ffae00;
      }

      .cls-5 {
        fill: #fff;
      }

      .cls-6 {
        fill: #684c46;
      }
    </style>
  </defs>
  <g>
    <rect width="72" height="72" rx="12" ry="12" class="cls-1"/>
    <path d="M53.000,58.000 L25.000,58.000 C22.791,58.000 21.000,56.209 21.000,54.000 L21.000,36.000 C21.000,33.791 22.791,32.000 25.000,32.000 L53.000,32.000 C55.209,32.000 57.000,33.791 57.000,36.000 L57.000,54.000 C57.000,56.209 55.209,58.000 53.000,58.000 ZM39.167,24.576 C34.743,24.576 31.000,27.574 31.000,31.998 L26.000,31.998 C26.000,25.045 32.214,19.999 39.167,19.999 C46.120,19.999 52.000,25.045 52.000,31.998 L47.000,31.998 C47.000,27.574 43.592,24.576 39.167,24.576 Z" class="cls-2"/>
    <rect x="18" y="28" width="36" height="27" rx="4" ry="4" class="cls-3"/>
    <path d="M22.000,28.000 L36.000,28.000 L36.000,55.000 L22.000,55.000 C19.791,55.000 18.000,53.209 18.000,51.000 L18.000,32.000 C18.000,29.791 19.791,28.000 22.000,28.000 Z" class="cls-4"/>
    <path d="M38.000,42.445 L38.000,45.000 C38.000,46.105 37.105,47.000 36.000,47.000 C34.895,47.000 34.000,46.105 34.000,45.000 L34.000,42.445 C32.809,41.752 32.000,40.477 32.000,39.000 C32.000,36.791 33.791,35.000 36.000,35.000 C38.209,35.000 40.000,36.791 40.000,39.000 C40.000,40.477 39.191,41.752 38.000,42.445 Z" class="cls-5"/>
    <path d="M36.167,20.577 C31.743,20.577 28.000,23.574 28.000,27.999 L23.000,27.999 C23.000,21.046 29.214,15.999 36.167,15.999 C43.120,15.999 49.000,21.046 49.000,27.999 L44.000,27.999 C44.000,23.574 40.592,20.577 36.167,20.577 Z" class="cls-6"/>
  </g>
</svg>
