<svg xmlns="http://www.w3.org/2000/svg" xmlns:xlink="http://www.w3.org/1999/xlink" preserveAspectRatio="xMidYMid" width="72" height="72" viewBox="0 0 72 72">
  <defs>
    <style>
      .cls-1 {
        fill: #3cf;
      }

      .cls-2 {
        fill: #27b5e4;
      }

      .cls-2, .cls-3 {
        fill-rule: evenodd;
      }

      .cls-3 {
        fill: #fff;
      }
    </style>
  </defs>
  <g>
    <rect width="72" height="72" rx="12" ry="12" class="cls-1"/>
    <path d="M53.003,37.395 C51.906,37.583 50.317,37.388 49.475,37.037 C51.225,36.891 52.410,36.092 52.866,35.009 C52.236,35.399 50.276,35.823 49.196,35.419 C49.142,35.164 49.083,34.921 49.024,34.701 C48.201,31.662 45.378,29.213 42.423,29.509 C42.661,29.412 42.903,29.322 43.147,29.239 C43.471,29.122 45.381,28.809 45.081,28.134 C44.826,27.538 42.493,28.582 42.054,28.719 C42.634,28.501 43.593,28.124 43.695,27.455 C42.807,27.577 41.935,27.999 41.261,28.612 C41.505,28.350 41.689,28.030 41.728,27.684 C39.359,29.206 37.974,32.270 36.854,35.245 C35.975,34.388 35.193,33.714 34.495,33.338 C32.533,32.283 30.187,31.180 26.505,29.807 C26.392,31.030 27.107,32.658 29.167,33.740 C28.721,33.679 27.905,33.815 27.253,33.970 C27.519,35.374 28.387,36.528 30.740,37.087 C29.665,37.157 29.109,37.405 28.606,37.933 C29.095,38.909 30.291,40.056 32.439,39.820 C30.049,40.856 31.464,42.772 33.410,42.486 C30.093,45.929 24.862,45.674 21.859,42.796 C29.700,53.530 46.747,49.143 49.286,38.804 C51.191,38.820 52.309,38.143 53.003,37.395 Z" class="cls-2"/>
    <path d="M51.140,34.940 C50.044,35.128 48.455,34.933 47.612,34.581 C49.363,34.436 50.548,33.637 51.004,32.554 C50.374,32.944 48.414,33.368 47.333,32.963 C47.280,32.709 47.221,32.466 47.161,32.246 C46.339,29.207 43.516,26.757 40.561,27.053 C40.799,26.957 41.041,26.867 41.285,26.784 C41.609,26.667 43.519,26.354 43.219,25.679 C42.964,25.083 40.631,26.127 40.192,26.264 C40.772,26.046 41.731,25.670 41.833,25.000 C40.945,25.122 40.073,25.544 39.399,26.157 C39.643,25.895 39.827,25.575 39.866,25.229 C37.496,26.750 36.112,29.815 34.992,32.790 C34.113,31.933 33.331,31.259 32.633,30.883 C30.671,29.828 28.325,28.724 24.643,27.351 C24.530,28.574 25.245,30.203 27.305,31.284 C26.859,31.224 26.043,31.359 25.391,31.514 C25.657,32.919 26.525,34.073 28.878,34.631 C27.803,34.702 27.247,34.949 26.743,35.477 C27.233,36.453 28.429,37.601 30.577,37.365 C28.187,38.400 29.602,40.317 31.548,40.031 C28.231,43.474 23.000,43.219 19.997,40.341 C27.838,51.075 44.885,46.688 47.424,36.349 C49.329,36.365 50.446,35.688 51.140,34.940 Z" class="cls-3"/>
  </g>
</svg>
