<svg xmlns="http://www.w3.org/2000/svg" xmlns:xlink="http://www.w3.org/1999/xlink" preserveAspectRatio="xMidYMid" width="74" height="73" viewBox="0 0 74 73">
  <defs>
    <style>
      .cls-1 {
        fill: #ededed;
      }

      .cls-1, .cls-3, .cls-4 {
        fill-rule: evenodd;
      }

      .cls-2 {
        fill: #3cf;
        stroke: #22b6e7;
        stroke-width: 2px;
      }

      .cls-3 {
        fill: #27b5e4;
      }

      .cls-4 {
        fill: #fff;
      }
    </style>
  </defs>
  <g>
    <path d="M-0.000,42.000 L72.000,42.000 L72.000,60.000 C72.000,66.627 66.627,72.000 60.000,72.000 L12.000,72.000 C5.373,72.000 -0.000,66.627 -0.000,60.000 L-0.000,42.000 Z" class="cls-1"/>
    <rect x="1" y="1" width="72" height="64" rx="12" ry="12" class="cls-2"/>
    <path d="M55.002,34.396 C53.906,34.584 52.317,34.389 51.474,34.038 C53.225,33.892 54.410,33.093 54.866,32.010 C54.235,32.400 52.276,32.824 51.196,32.419 C51.142,32.165 51.083,31.922 51.024,31.701 C50.201,28.663 47.378,26.214 44.423,26.509 C44.661,26.413 44.903,26.323 45.147,26.240 C45.471,26.123 47.381,25.810 47.081,25.135 C46.826,24.539 44.493,25.583 44.054,25.720 C44.634,25.502 45.593,25.125 45.695,24.456 C44.807,24.578 43.935,25.000 43.261,25.613 C43.505,25.351 43.689,25.031 43.728,24.685 C41.358,26.206 39.974,29.271 38.854,32.246 C37.975,31.389 37.193,30.715 36.495,30.339 C34.533,29.284 32.187,28.180 28.505,26.807 C28.392,28.030 29.107,29.659 31.167,30.740 C30.721,30.680 29.905,30.815 29.253,30.971 C29.519,32.375 30.387,33.529 32.740,34.088 C31.665,34.158 31.108,34.405 30.606,34.933 C31.095,35.910 32.291,37.057 34.439,36.821 C32.049,37.857 33.464,39.773 35.410,39.487 C32.093,42.930 26.862,42.675 23.859,39.797 C31.700,50.531 48.747,46.144 51.286,35.805 C53.191,35.821 54.309,35.144 55.002,34.396 Z" class="cls-3"/>
    <path d="M51.140,31.941 C50.044,32.129 48.454,31.934 47.612,31.582 C49.363,31.437 50.547,30.638 51.004,29.554 C50.373,29.944 48.414,30.369 47.333,29.964 C47.279,29.709 47.221,29.467 47.161,29.247 C46.339,26.207 43.516,23.758 40.561,24.054 C40.799,23.958 41.041,23.867 41.285,23.785 C41.609,23.668 43.519,23.355 43.218,22.680 C42.964,22.083 40.631,23.128 40.192,23.265 C40.772,23.047 41.731,22.671 41.833,22.001 C40.945,22.122 40.073,22.545 39.399,23.158 C39.643,22.896 39.827,22.575 39.866,22.230 C37.496,23.751 36.112,26.815 34.992,29.791 C34.113,28.934 33.331,28.260 32.633,27.884 C30.671,26.829 28.325,25.725 24.643,24.352 C24.530,25.575 25.245,27.204 27.305,28.285 C26.859,28.225 26.043,28.360 25.391,28.515 C25.657,29.920 26.525,31.074 28.878,31.632 C27.803,31.703 27.246,31.950 26.743,32.478 C27.233,33.454 28.429,34.602 30.577,34.365 C28.187,35.401 29.602,37.318 31.548,37.031 C28.231,40.475 23.000,40.220 19.997,37.342 C27.838,48.076 44.885,43.689 47.424,33.350 C49.329,33.366 50.446,32.688 51.140,31.941 Z" class="cls-4"/>
  </g>
</svg>
