<svg xmlns="http://www.w3.org/2000/svg" xmlns:xlink="http://www.w3.org/1999/xlink" preserveAspectRatio="xMidYMid" width="72" height="72" viewBox="0 0 72 72">
  <defs>
    <style>
      .cls-1 {
        fill: #ededed;
      }

      .cls-1, .cls-2, .cls-3, .cls-4, .cls-5, .cls-6 {
        fill-rule: evenodd;
      }

      .cls-2 {
        fill: #dfdfdf;
      }

      .cls-3 {
        fill: #97171b;
      }

      .cls-4 {
        fill: #bf2026;
      }

      .cls-5 {
        fill: #fff;
      }

      .cls-6 {
        fill: #ebe4e4;
      }
    </style>
  </defs>
  <g>
    <path d="M60.000,72.000 L12.000,72.000 C5.373,72.000 -0.000,66.627 -0.000,60.000 L-0.000,12.000 C-0.000,5.373 5.373,-0.000 12.000,-0.000 L60.000,-0.000 C66.627,-0.000 72.000,5.373 72.000,12.000 L72.000,60.000 C72.000,66.627 66.627,72.000 60.000,72.000 Z" class="cls-1"/>
    <path d="M38.509,24.999 L38.491,24.999 C38.491,24.999 29.885,24.999 24.147,25.416 C23.346,25.512 21.599,25.520 20.039,27.163 C18.810,28.413 18.410,31.255 18.410,31.255 C18.410,31.255 18.000,34.591 18.000,37.928 L18.000,41.056 C18.000,44.392 18.410,47.729 18.410,47.729 C18.410,47.729 18.810,50.570 20.039,51.821 C21.599,53.463 23.647,53.412 24.560,53.584 C27.840,53.900 38.500,53.998 38.500,53.998 L38.500,53.998 C38.500,53.998 47.115,53.985 52.852,53.568 C53.654,53.471 55.401,53.463 56.960,51.821 C58.189,50.570 58.590,47.729 58.590,47.729 C58.590,47.729 58.999,44.392 58.999,41.056 L58.999,37.928 C58.999,34.591 58.590,31.255 58.590,31.255 C58.590,31.255 58.189,28.413 56.960,27.163 C55.401,25.520 53.654,25.512 52.852,25.416 C47.115,24.999 38.509,24.999 38.509,24.999 " class="cls-2"/>
    <path d="M36.509,22.999 L36.491,22.999 C36.491,22.999 27.885,22.999 22.147,23.416 C21.346,23.512 19.599,23.520 18.039,25.162 C16.810,26.414 16.410,29.255 16.410,29.255 C16.410,29.255 16.000,32.591 16.000,35.928 L16.000,39.056 C16.000,42.392 16.410,45.729 16.410,45.729 C16.410,45.729 16.810,48.570 18.039,49.821 C19.599,51.463 21.647,51.411 22.560,51.584 C25.840,51.900 36.500,51.997 36.500,51.997 L36.500,51.997 C36.500,51.997 45.115,51.985 50.852,51.568 C51.654,51.472 53.401,51.463 54.960,49.821 C56.189,48.570 56.590,45.729 56.590,45.729 C56.590,45.729 57.000,42.392 57.000,39.056 L57.000,35.928 C57.000,32.591 56.590,29.255 56.590,29.255 C56.590,29.255 56.189,26.414 54.960,25.162 C53.401,23.520 51.654,23.512 50.852,23.416 C45.115,22.999 36.509,22.999 36.509,22.999 " class="cls-3"/>
    <path d="M36.509,20.999 L36.491,20.999 C36.491,20.999 27.885,20.999 22.147,21.416 C21.346,21.512 19.599,21.520 18.039,23.163 C16.810,24.413 16.410,27.255 16.410,27.255 C16.410,27.255 16.000,30.591 16.000,33.928 L16.000,37.056 C16.000,40.392 16.410,43.729 16.410,43.729 C16.410,43.729 16.810,46.570 18.039,47.821 C19.599,49.463 21.647,49.412 22.560,49.583 C25.840,49.900 36.500,49.998 36.500,49.998 L36.500,49.998 C36.500,49.998 45.115,49.985 50.852,49.568 C51.654,49.471 53.401,49.463 54.960,47.821 C56.189,46.570 56.590,43.729 56.590,43.729 C56.590,43.729 57.000,40.392 57.000,37.056 L57.000,33.928 C57.000,30.591 56.590,27.255 56.590,27.255 C56.590,27.255 56.189,24.413 54.960,23.163 C53.401,21.520 51.654,21.512 50.852,21.416 C45.115,20.999 36.509,20.999 36.509,20.999 " class="cls-4"/>
    <path d="M34.000,43.042 L42.076,36.581 L34.000,30.120 L34.000,43.042 Z" class="cls-5"/>
    <path d="M40.000,38.042 L42.076,36.581 L34.000,30.120 L40.000,38.042 Z" class="cls-6"/>
  </g>
</svg>
