<?xml version="1.0" encoding="utf-8"?>
<!-- Generator: Adobe Illustrator 19.0.0, SVG Export Plug-In . SVG Version: 6.00 Build 0)  -->
<svg version="1.2" baseProfile="tiny" id="Layer_2" xmlns="http://www.w3.org/2000/svg" xmlns:xlink="http://www.w3.org/1999/xlink"
	 x="0px" y="0px" width="131.2px" height="185px" viewBox="0 0 131.2 185" xml:space="preserve">
<g id="XMLID_45_">
	<ellipse id="XMLID_2_" fill="#D1D3D4" cx="65.6" cy="181.3" rx="55.5" ry="3.7"/>
	<g id="XMLID_4_">
		<path id="XMLID_5_" fill="#FAA21B" d="M119.2,34.6c-0.2-1.3-1.3-2.3-2.6-2.3H93.8c-1.6,0-2.8,1.4-2.6,2.9
			c0.6,5.9,2.1,19.7,3.6,34.2h29.7C122.2,54.6,120.1,40.1,119.2,34.6z"/>
		<path id="XMLID_6_" fill="#00BFF3" d="M124.4,69.5H94.8c1.9,19.3,3.9,39.8,3.8,44.2c-0.2,9.2-3.4,15.5-10.8,21.7
			c-8.9,7.3-22.2,7.1-22.2,7.1v38.6c0,0,28.8,0,47.6-20.3c17.1-18.5,19.8-33.8,17.3-51.1C130.1,107.7,127.2,88.4,124.4,69.5z"/>
	</g>
	<g id="XMLID_3_">
		<path id="XMLID_7_" fill="#FAA21B" d="M40,35.3c0.2-1.6-1.1-2.9-2.6-2.9H14.6c-1.3,0-2.4,1-2.6,2.3c-0.8,5.5-3,20-5.2,34.9h29.7
			C37.9,55,39.4,41.1,40,35.3z"/>
		<path id="XMLID_8_" fill="#E9374F" d="M43.5,135.4c-7.4-6.1-10.6-12.4-10.8-21.7c-0.1-4.4,1.8-24.9,3.8-44.2H6.8
			c-2.8,18.9-5.7,38.2-6,40.2C-1.7,127,1,142.2,18.1,160.8c18.8,20.3,47.6,20.3,47.6,20.3v-38.6C65.7,142.5,52.3,142.7,43.5,135.4z"
			/>
	</g>
	<path id="XMLID_1_" fill="#FAA21B" d="M65.9,69.5c-0.1-0.8-0.6-18.9-0.6-18.9l4.6-1.1l-1.2-13.7l6.5,4L69.5,0l-3.3,26.8l-5.7-4.4
		l4.1,22.5l-8.6,1.8L65.9,69.5z"/>
</g>
</svg>
