<?xml version="1.0" encoding="utf-8"?>
<!-- Generator: Adobe Illustrator 19.0.0, SVG Export Plug-In . SVG Version: 6.00 Build 0)  -->
<svg version="1.1" id="Layer_1" xmlns="http://www.w3.org/2000/svg" xmlns:xlink="http://www.w3.org/1999/xlink" x="0px" y="0px"
	 width="187px" height="185px" viewBox="1 48 187 185" style="enable-background:new 1 48 187 185;" xml:space="preserve">
<style type="text/css">
	.st0{fill:#F2F2F2;}
	.st1{fill:#D6D6D6;}
	.st2{fill:#FFFFFF;}
	.st3{fill:#7F888F;}
	.st4{fill:#FE6760;}
	.st5{fill:#FFBD2E;}
	.st6{fill:#28C941;}
	.st7{fill:#E5E5E5;fill-opacity:0;stroke:#308CD6;stroke-width:2;stroke-dasharray:4;}
	.st8{fill:#EDEDED;}
	.st9{fill:#308CD6;}
</style>
<g>
	<path class="st0" d="M66.4,48h118.3c1.9,0,3.4,1.5,3.4,3.3v178.4c0,1.8-1.5,3.3-3.4,3.3H66.4c-1.9,0-3.4-1.5-3.4-3.3V51.3
		C63,49.5,64.5,48,66.4,48z"/>
	<g>
		<rect x="63" y="56" class="st1" width="125" height="51"/>
		<path class="st2" d="M117.1,74h17.9c1.1,0,2.1,0.9,2.1,1.9v9.1c0,1.1-0.9,1.9-2.1,1.9h-17.9c-1.1,0-2.1-0.9-2.1-1.9v-9.1
			C115,74.9,115.9,74,117.1,74z"/>
		<path class="st3" d="M128.9,80.8l-4,2.6v-5.2L128.9,80.8z"/>
	</g>
	<ellipse class="st4" cx="68.7" cy="52.5" rx="1" ry="1"/>
	<ellipse class="st5" cx="73.3" cy="52.5" rx="1" ry="1"/>
	<ellipse class="st6" cx="77.9" cy="52.5" rx="1" ry="1"/>
	<rect x="143.5" y="117" class="st7" width="34.5" height="106"/>
	<rect x="152" y="125" class="st1" width="19" height="19"/>
	<rect x="152" y="147" class="st1" width="19" height="4"/>
	<rect x="152" y="158" class="st1" width="19" height="19"/>
	<rect x="152" y="180" class="st1" width="19" height="4"/>
	<rect x="152" y="191" class="st1" width="19" height="19"/>
	<rect x="152" y="213" class="st1" width="19" height="4"/>
</g>
<g>
	<path class="st2" d="M4.4,48h118.3c1.9,0,3.4,1.5,3.4,3.3v178.4c0,1.8-1.5,3.3-3.4,3.3H4.4c-1.9,0-3.4-1.5-3.4-3.3V51.3
		C1,49.5,2.5,48,4.4,48z"/>
	<g>
		<rect x="1" y="151" class="st8" width="125" height="38"/>
		<path class="st9" d="M126,151h-4v2h2v4h2V151L126,151z M118,151h-4v2h4V151L118,151z M110,151h-4v2h4V151L110,151z M102,151h-4v2
			h4V151L102,151z M94,151h-4v2h4V151L94,151z M86,151h-4v2h4V151L86,151z M78,151h-4v2h4V151L78,151z M70,151h-4v2h4V151L70,151z
			 M62,151h-4v2h4V151L62,151z M54,151h-4v2h4V151L54,151z M46,151h-4v2h4V151L46,151z M38,151h-4v2h4V151L38,151z M30,151h-4v2h4
			V151L30,151z M22,151h-4v2h4V151L22,151z M14,151h-4v2h4V151L14,151z M6,151H2v2h4V151L6,151z M3,154H1v4h2V154L3,154z M3,162H1v4
			h2V162L3,162z M3,170H1v4h2V170L3,170z M3,178H1v4h2V178L3,178z M3,186H1v3h2l0,0l0,0l0,0V186L3,186z M10,187H6v2h4V187L10,187z
			 M18,187h-4v2h4V187L18,187z M26,187h-4v2h4V187L26,187z M34,187h-4v2h4V187L34,187z M42,187h-4v2h4V187L42,187z M50,187h-4v2h4
			V187L50,187z M58,187h-4v2h4V187L58,187z M66,187h-4v2h4V187L66,187z M74,187h-4v2h4V187L74,187z M82,187h-4v2h4V187L82,187z
			 M90,187h-4v2h4V187L90,187z M98,187h-4v2h4V187L98,187z M106,187h-4v2h4V187L106,187z M114,187h-4v2h4V187L114,187z M122,187h-4
			v2h4V187L122,187z M126,185h-2v4h2V185L126,185z M126,177h-2v4h2V177L126,177z M126,169h-2v4h2V169L126,169z M126,161h-2v4h2V161
			L126,161z"/>
	</g>
	<g>
		<rect x="15" y="116" class="st8" width="19" height="19"/>
		<rect x="15" y="138" class="st8" width="19" height="4"/>
		<rect x="41" y="116" class="st8" width="19" height="19"/>
		<rect x="41" y="138" class="st8" width="19" height="4"/>
		<rect x="68" y="116" class="st8" width="19" height="19"/>
		<rect x="68" y="138" class="st8" width="19" height="4"/>
		<rect x="95" y="116" class="st8" width="19" height="19"/>
		<rect x="95" y="138" class="st8" width="19" height="4"/>
		<rect x="15" y="197" class="st8" width="19" height="19"/>
		<rect x="15" y="219" class="st8" width="19" height="4"/>
		<rect x="41" y="197" class="st8" width="19" height="19"/>
		<rect x="41" y="219" class="st8" width="19" height="4"/>
		<rect x="68" y="197" class="st8" width="19" height="19"/>
		<rect x="68" y="219" class="st8" width="19" height="4"/>
		<rect x="95" y="197" class="st8" width="19" height="19"/>
		<rect x="95" y="219" class="st8" width="19" height="4"/>
	</g>
	<g>
		<rect x="1" y="56" class="st8" width="125" height="51"/>
		<path class="st2" d="M55.1,74h17.9c1.1,0,2.1,0.9,2.1,1.9v9.1c0,1.1-0.9,1.9-2.1,1.9H55.1c-1.1,0-2.1-0.9-2.1-1.9v-9.1
			C53,74.9,53.9,74,55.1,74z"/>
		<path class="st3" d="M66.9,80.8l-4,2.6v-5.2L66.9,80.8z"/>
	</g>
	<ellipse class="st4" cx="6.7" cy="52.5" rx="1" ry="1"/>
	<ellipse class="st5" cx="11.3" cy="52.5" rx="1" ry="1"/>
	<ellipse class="st6" cx="15.9" cy="52.5" rx="1" ry="1"/>
</g>
</svg>
