<?xml version="1.0" encoding="utf-8"?>
<!-- Generator: Adobe Illustrator 19.0.0, SVG Export Plug-In . SVG Version: 6.00 Build 0)  -->
<svg version="1.1" id="Layer_1" xmlns="http://www.w3.org/2000/svg" xmlns:xlink="http://www.w3.org/1999/xlink" x="0px" y="0px"
	 width="144px" height="185px" viewBox="-1.7 11 144 185" style="enable-background:new -1.7 11 144 185;" xml:space="preserve">
<style type="text/css">
	.st0{fill:#FFFFFF;}
	.st1{fill:#E2E1E1;}
	.st2{fill:#83BDEB;}
	.st3{fill:#F0F0F0;}
	.st4{fill:#BCBBBB;}
	.st5{fill:#A2D1F7;}
</style>
<g>
	<g>
		<rect x="-1.2" y="11.5" class="st0" width="143" height="184"/>
		<path class="st1" d="M141.3,12v183h-142V12H141.3 M142.3,11h-144v185h144V11L142.3,11z"/>
	</g>
	<rect x="75.3" y="121" class="st2" width="45" height="27"/>
	<rect x="21.3" y="121" class="st2" width="45" height="27"/>
	<rect x="-0.7" y="70" class="st3" width="142" height="33"/>
	<path class="st4" d="M20.3,87v-2h100v2H20.3z M20.3,79h100v2h-100V79z M85.3,93h-65v-2h65V93z"/>
	<rect x="43.3" y="34" class="st5" width="54" height="27"/>
	<path class="st1" d="M20.3,174v-2h100v2H20.3z M20.3,166h100v2h-100V166z M85.3,180h-65v-2h65V180z"/>
</g>
</svg>
